<svg width="52" height="51" viewBox="0 0 52 51" fill="none" xmlns="http://www.w3.org/2000/svg">
<g clip-path="url(#clip0_2751_126)">
<path fill-rule="evenodd" clip-rule="evenodd" d="M49.6511 9.58373C49.4768 7.93966 49.0241 6.33722 48.3124 4.84498C47.8308 3.9014 47.2841 2.99253 46.6761 2.12498C46.5504 1.95451 46.392 1.81081 46.2101 1.70228C46.0282 1.59376 45.8265 1.52257 45.6168 1.49289C45.4071 1.46322 45.1935 1.47564 44.9887 1.52944C44.7838 1.58324 44.5917 1.67734 44.4236 1.80623C43.4036 2.67748 42.5749 3.54873 41.5761 4.27123C40.9924 4.72002 40.3486 5.08481 39.6636 5.35498C36.7099 6.58748 32.1624 7.47998 29.3574 9.47748C28.1799 10.2517 27.2848 11.3864 26.806 12.7118C26.3272 14.0372 26.2904 15.482 26.7011 16.83C26.8294 17.346 27 17.8507 27.2111 18.3387L27.5299 18.8912C21.6274 22.7562 15.9514 26.9564 10.5299 31.4712C7.9167 33.5084 5.64305 35.947 3.79363 38.6962C3.18968 39.8016 2.75285 40.9903 2.49738 42.2237C2.32704 43.1295 2.32704 44.0592 2.49738 44.965C2.70513 46.0247 3.13924 47.0271 3.77004 47.9037C4.40085 48.7802 5.21348 49.5102 6.15238 50.0437C7.10952 50.6046 8.18478 50.9332 9.2919 51.0033C10.399 51.0734 11.5071 50.8831 12.5274 50.4475C15.504 48.5044 18.1211 46.0598 20.2624 43.2225C25.8511 36.6562 32.3749 27.4762 34.6274 24.6712C34.7647 24.4967 34.8301 24.2763 34.8104 24.0551C34.7906 23.834 34.6872 23.6287 34.5211 23.4812C34.3908 23.4074 34.2456 23.3638 34.0961 23.3537C33.6286 22.7375 33.2036 22.1 32.6936 21.505C32.4675 21.2296 32.2187 20.9737 31.9499 20.74C31.6896 20.4922 31.4048 20.2715 31.0999 20.0812C30.4027 19.7518 29.7997 19.2521 29.3466 18.6281C28.8935 18.0042 28.6049 17.2762 28.5074 16.5112C28.2617 15.5035 28.3458 14.4436 28.7474 13.4872C29.1491 12.5309 29.847 11.7288 30.7386 11.1987C32.1125 10.387 33.6034 9.79206 35.1586 9.43498C35.1927 9.75835 35.2788 10.0741 35.4136 10.37C35.9112 11.1496 36.6614 11.7347 37.5386 12.0275C38.328 12.2359 39.0564 12.6292 39.6636 13.175C40.1688 13.8231 40.4319 14.6273 40.4074 15.4487C40.4135 16.7322 40.7345 17.9946 41.3424 19.125C41.7202 19.5861 42.1908 19.9626 42.7236 20.23C41.8519 20.9495 40.9125 21.5828 39.9186 22.1212C38.5697 22.8666 37.0606 23.2748 35.5199 23.3112C35.4093 23.3026 35.2981 23.3162 35.1929 23.3513C35.0877 23.3864 34.9906 23.4423 34.9073 23.5156C34.8241 23.5889 34.7564 23.6782 34.7084 23.7781C34.6603 23.8781 34.6327 23.9867 34.6274 24.0975C34.6187 24.2081 34.6323 24.3193 34.6675 24.4245C34.7026 24.5297 34.7584 24.6268 34.8317 24.71C34.9051 24.7933 34.9944 24.8609 35.0943 24.909C35.1943 24.9571 35.3028 24.9846 35.4136 24.99C36.8671 25.0473 38.316 24.7937 39.6636 24.2462C41.6872 23.4983 43.5696 22.4134 45.2311 21.0375C46.2237 20.1893 47.0707 19.1843 47.7386 18.0625C48.3786 16.9479 48.8715 15.755 49.2049 14.5137C49.6535 12.9114 49.8047 11.2405 49.6511 9.58373ZM30.7386 23.5025C31.2911 23.8637 31.8436 24.1612 32.3961 24.48C29.5911 27.88 23.4711 35.7425 18.1799 41.48C16.2372 43.9717 13.8966 46.1257 11.2524 47.855C10.639 48.1053 9.97568 48.2087 9.31525 48.1571C8.65482 48.1054 8.01561 47.9001 7.44863 47.5575C6.86626 47.2322 6.36138 46.7845 5.96882 46.2452C5.57627 45.7059 5.3054 45.0879 5.17488 44.4337C5.07118 43.7242 5.11458 43.0008 5.30238 42.3087C5.52006 41.5082 5.81912 40.7321 6.19488 39.9925C8.45151 36.6609 11.2197 33.7062 14.3974 31.2375C19.4124 26.8387 25.2136 22.4612 27.9761 20.4637C28.3193 21.0492 28.7027 21.6101 29.1236 22.1425C29.6008 22.67 30.1435 23.1341 30.7386 23.5237V23.5025ZM46.7399 13.8975C46.5271 14.9777 46.1622 16.0222 45.6561 17C45.2563 17.7138 44.7632 18.3712 44.1899 18.955C43.7678 18.7879 43.4104 18.49 43.1699 18.105C42.8923 17.1674 42.8342 16.1786 42.9999 15.215C43.0377 13.7426 42.5221 12.3095 41.5549 11.1987C40.7325 10.5128 39.7423 10.0581 38.6861 9.88123C38.0061 9.73248 37.3049 9.88123 36.9436 9.32873C36.8115 9.24275 36.7022 9.1261 36.6249 8.98873C38.0274 8.64873 39.4299 8.32998 40.5774 7.92623C41.5069 7.60054 42.3811 7.13475 43.1699 6.54498C43.9088 6.01001 44.6181 5.43542 45.2949 4.82373C45.5286 5.37623 45.7199 5.99248 45.7411 6.03498C46.3421 7.24472 46.7439 8.54349 46.9311 9.88123C47.0884 11.2214 47.0238 12.5783 46.7399 13.8975Z" fill="black"/>
<path fill-rule="evenodd" clip-rule="evenodd" d="M3.19836 9.56245C4.17586 11.3687 2.22086 7.43745 12.1021 25.6274C12.1928 25.8017 12.3487 25.933 12.5358 25.9927C12.7229 26.0524 12.926 26.0357 13.1009 25.9462C13.2749 25.8552 13.4073 25.7007 13.4706 25.5148C13.5339 25.3289 13.5232 25.1257 13.4409 24.9474L11.1246 19.6137C11.8085 19.4387 12.4712 19.1893 13.1009 18.8699C13.6724 18.5609 14.2132 18.198 14.7159 17.7862C15.4809 17.1699 16.1184 16.49 16.8409 15.8737C16.9371 15.8207 17.022 15.7492 17.0907 15.6634C17.1593 15.5776 17.2104 15.479 17.241 15.3735C17.2716 15.2679 17.2811 15.1574 17.2689 15.0481C17.2568 14.9389 17.2233 14.8331 17.1702 14.7368C17.1172 14.6405 17.0457 14.5557 16.9599 14.487C16.8741 14.4183 16.7756 14.3673 16.67 14.3367C16.5644 14.3061 16.4539 14.2966 16.3446 14.3087C16.2354 14.3209 16.1296 14.3544 16.0334 14.4074C15.0816 14.7041 14.1514 15.0662 13.2496 15.4912C12.4885 15.8214 11.7741 16.25 11.1246 16.7662C10.7634 17.0637 10.4234 17.3824 10.0834 17.7012L8.21336 13.4512L9.23336 13.0687C9.59461 12.8987 9.95586 12.7074 10.2746 12.5162C10.5934 12.3249 10.9334 12.07 11.2521 11.8362C11.9959 11.2412 12.6759 10.6249 13.3771 10.0087C13.5687 9.89598 13.7077 9.71176 13.7635 9.49656C13.8193 9.28137 13.7873 9.05282 13.6746 8.8612C13.5619 8.66958 13.3777 8.53059 13.1625 8.47479C12.9473 8.419 12.7187 8.45098 12.5271 8.5637C11.6346 8.88245 10.7634 9.1587 9.87086 9.5412C9.50243 9.68819 9.14701 9.8659 8.80836 10.0724C8.4561 10.2693 8.12189 10.4969 7.80961 10.7524C7.6008 10.94 7.40218 11.1386 7.21461 11.3475C6.70461 10.3274 6.06711 9.22245 5.55711 8.2237C5.43502 7.97988 5.32162 7.73181 5.21711 7.47995C5.75877 7.27067 6.31221 7.09328 6.87461 6.9487C8.00086 6.37495 9.21211 5.73745 10.4234 5.1637C11.6346 4.58995 12.8671 4.0587 14.0996 3.5487C14.6321 3.42029 15.1514 3.24244 15.6509 3.01745V3.18745C16.1396 3.90995 16.5859 4.7812 16.9471 5.31245C18.0734 6.88495 19.0721 8.54245 20.1559 10.2212C21.2396 11.9 22.1109 13.6424 22.9609 15.3849C23.0068 15.4869 23.0724 15.5788 23.1539 15.6554C23.2354 15.732 23.3312 15.7917 23.4358 15.8312C23.5404 15.8706 23.6518 15.8891 23.7636 15.8855C23.8753 15.8818 23.9853 15.8562 24.0871 15.8099C24.2893 15.7133 24.4451 15.5408 24.5207 15.3299C24.5963 15.119 24.5856 14.8867 24.4909 14.6837C23.7259 12.8562 22.8334 11.0287 21.8984 9.2437C20.9634 7.4587 19.9646 5.69495 18.9234 3.99495C18.5196 3.3787 18.0734 2.2737 17.5209 1.4662C17.2156 0.970974 16.819 0.538293 16.3521 0.191199C16.1322 0.0900764 15.8929 0.0377197 15.6509 0.0377197C15.4088 0.0377197 15.1696 0.0900764 14.9496 0.191199C14.5246 0.297449 13.2496 0.956199 13.1009 1.01995C11.8046 1.5087 10.5084 2.03995 9.25461 2.59245C8.00086 3.14495 6.72586 3.78245 5.51461 4.41995C4.60039 4.89816 3.7325 5.46015 2.92211 6.0987C2.70153 6.29386 2.53773 6.54494 2.44796 6.82545C2.3582 7.10595 2.34581 7.40549 2.41211 7.69245C2.60638 8.34217 2.86998 8.96911 3.19836 9.56245Z" fill="black"/>
<path fill-rule="evenodd" clip-rule="evenodd" d="M38.0911 38.25C37.1986 36.55 36.1786 34.9137 35.2649 33.235C34.8824 32.5337 34.4999 31.8112 34.1811 31.11C34.0877 30.9148 33.9233 30.7625 33.7215 30.6844C33.5197 30.6062 33.2956 30.6079 33.0951 30.6892C32.8945 30.7705 32.7325 30.9253 32.6421 31.1219C32.5517 31.3186 32.5397 31.5423 32.6086 31.7475L35.9024 39.3125C36.0511 39.6737 36.3486 40.2687 36.5824 40.885C36.7009 41.1481 36.7797 41.4274 36.8161 41.7137C36.1249 42.0022 35.4149 42.2436 34.6911 42.4362L28.1249 46.325C27.8274 46.495 27.3599 46.7925 26.8711 47.0262L26.3611 47.3025C26.2987 47.1675 26.2558 47.0244 26.2336 46.8775L25.1711 44.9437C25.7173 44.8617 26.257 44.741 26.7861 44.5825C27.0494 44.4722 27.305 44.3444 27.5511 44.2C27.7957 44.0636 28.0239 43.8996 28.2311 43.7112C28.7624 43.265 29.1874 42.7975 29.6974 42.3087C29.8902 42.1973 30.0317 42.0147 30.0913 41.8001C30.1509 41.5855 30.1239 41.3561 30.0161 41.1612C29.9047 40.9683 29.7221 40.8269 29.5075 40.7673C29.2929 40.7077 29.0635 40.7347 28.8686 40.8425C28.1886 41.0337 27.5511 41.1612 26.8924 41.395C26.6208 41.4936 26.3578 41.6145 26.1061 41.7562C25.8546 41.8921 25.6194 42.0561 25.4049 42.245C25.0231 42.6086 24.668 42.9991 24.3424 43.4137V43.2437C24.2438 43.0718 24.0839 42.9435 23.8948 42.8844C23.7057 42.8253 23.5013 42.8398 23.3224 42.925C23.1481 43.0156 23.0168 43.1715 22.9571 43.3586C22.8974 43.5457 22.9141 43.7489 23.0036 43.9237L24.5761 47.7275C24.6952 48.1208 24.8444 48.5045 25.0224 48.875C25.1035 49.0139 25.214 49.1334 25.3461 49.2251C25.4783 49.3169 25.6289 49.3787 25.7874 49.4062C26.2408 49.5196 26.7152 49.5196 27.1686 49.4062C27.9006 49.204 28.6121 48.9337 29.2936 48.5987C30.2711 48.195 31.2486 47.7487 32.2049 47.26C33.6074 46.5587 34.9461 45.7512 36.3061 44.9862C37.2566 44.5418 38.1667 44.0156 39.0261 43.4137C39.3494 43.1391 39.5734 42.7657 39.6636 42.3512C39.7005 41.7885 39.6209 41.2243 39.4299 40.6937C39.0469 39.846 38.5993 39.029 38.0911 38.25Z" fill="black"/>
</g>
<defs>
<clipPath id="clip0_2751_126">
<rect width="51" height="51" fill="white" transform="translate(0.5)"/>
</clipPath>
</defs>
</svg>
