<svg width="457" height="457" viewBox="0 0 457 457" fill="none" xmlns="http://www.w3.org/2000/svg">
<path fill-rule="evenodd" clip-rule="evenodd" d="M190.772 27.9067C230.943 26.1155 252.326 39.0669 271.922 52.8562C247.079 81.075 244.401 119.264 254.604 147.945C277.141 211.294 360.139 234.724 412.557 184.63C427.443 170.402 435.519 152.093 438.992 139.572C447.266 162.961 447.814 188.479 440.418 212.322C436.938 223.923 431.968 233.493 427.016 243.019C421.701 253.251 416.411 263.433 413.023 276.03C408.933 291.237 412.125 304.664 415.479 318.776C420.225 338.733 425.296 360.057 410.553 389.711C397.814 415.34 366.272 427.057 337.851 427.816C310.854 428.536 283.66 414.268 262.944 403.398C255.728 399.612 249.3 396.24 243.937 394.055C219.059 383.921 202.593 397.444 184.935 411.944L184.934 411.947H184.933L184.929 411.951H184.927L184.926 411.953H184.924L184.923 411.956C182.361 414.06 179.773 416.185 177.131 418.26C162.571 429.701 82.7033 473.706 31.0051 389.295C19.0203 369.75 -1.41444 318.472 22.5506 267.962C33.9809 243.873 47.8876 232.017 60.2559 221.472C74.7023 209.156 87.05 198.629 90.9018 172.488C92.377 162.474 91.9746 152.329 91.5649 142.001C90.7519 121.502 89.9106 100.285 103.668 77.9482C112.962 63.0959 125.77 50.7613 140.962 42.0337C156.153 33.3062 173.261 28.4542 190.772 27.9067ZM148.215 183.856C151.99 182.037 157.938 179.173 159.546 178.506C159.724 178.451 159.915 178.456 160.091 178.519C160.266 178.582 160.417 178.7 160.52 178.856C160.622 179.012 160.671 179.197 160.66 179.383C160.648 179.569 160.576 179.747 160.455 179.889C159.475 180.871 148.987 186.723 147.387 187.608C147.775 188.1 148.993 188.946 150.373 189.904C151.539 190.714 152.821 191.604 153.815 192.429C156.429 194.592 156.458 194.929 156.513 195.583C156.518 195.637 156.523 195.694 156.529 195.754C156.54 195.837 156.532 195.921 156.506 196C156.481 196.08 156.438 196.153 156.382 196.215C156.326 196.276 156.256 196.324 156.179 196.357C156.102 196.389 156.019 196.404 155.935 196.4C155.653 196.387 155.374 196.329 155.11 196.229C153.097 195.048 151.22 193.731 149.637 192.62C147.618 191.203 146.077 190.121 145.342 190.087C144.862 193.811 144.576 197.557 144.485 201.311C144.396 202.753 144.314 203.655 143.765 204.053C143.529 204.251 143.236 204.369 142.929 204.391C141.898 204.391 141.834 202.951 141.809 201.925C141.723 198.363 142.214 191.947 142.349 190.272C142.004 190.423 141.448 190.699 140.534 191.186C137.155 192.974 135.267 194.074 134.149 194.726L134.148 194.727C132.57 195.646 132.528 195.67 131.993 195.473C131.816 195.413 131.66 195.303 131.544 195.156C131.429 195.009 131.359 194.832 131.344 194.645C131.196 192.859 136.199 190.195 139.659 188.353C140.257 188.035 140.81 187.74 141.282 187.48L139.611 186.31C131.785 180.827 130.728 180.087 130.768 179.413C130.775 179.308 130.808 179.204 130.846 179.085L130.85 179.071C131.612 176.68 135.839 179.845 139.291 182.43C140.717 183.498 142.012 184.468 142.874 184.904C142.86 184.112 142.963 181.854 143.578 175.031C143.894 171.522 143.855 168.83 143.826 166.841C143.78 163.677 143.76 162.293 145.235 162.235C145.564 162.262 145.877 162.389 146.132 162.599C146.386 162.81 146.57 163.093 146.658 163.412C146.736 170.634 146.431 177.854 145.744 185.044C146.312 184.772 147.167 184.361 148.181 183.873L148.197 183.865L148.211 183.858L148.215 183.856ZM391.946 256.647C392.076 256.505 392.154 256.324 392.17 256.133C392.186 255.941 392.138 255.751 392.033 255.589C391.93 255.426 391.775 255.305 391.592 255.241C391.411 255.177 391.215 255.177 391.032 255.237C389.213 255.989 381.89 259.526 378.385 261.217L378.38 261.219L377.231 261.774C377.918 254.583 378.222 247.363 378.145 240.14C378.056 239.822 377.87 239.539 377.617 239.329C377.363 239.118 377.05 238.993 376.721 238.965C375.247 239.022 375.268 240.407 375.316 243.565C375.343 245.555 375.384 248.249 375.067 251.761C374.452 258.58 374.352 260.84 374.365 261.632C373.501 261.198 372.204 260.225 370.773 259.153C367.325 256.569 363.102 253.404 362.339 255.801L362.332 255.819C362.296 255.938 362.262 256.041 362.257 256.146C362.214 256.82 363.276 257.563 371.214 263.118L372.77 264.208C372.341 264.445 371.833 264.713 371.278 265.007C367.862 266.822 362.682 269.573 362.833 271.376C362.869 271.572 362.958 271.757 363.091 271.908C363.221 272.059 363.393 272.171 363.582 272.235C363.772 272.299 363.975 272.31 364.172 272.267C364.368 272.226 364.549 272.132 364.697 271.997C365.271 271.54 372.923 267.395 374.066 266.849C374.057 266.959 374.045 267.091 374.032 267.24L374.029 267.256C373.767 270.197 372.887 280.002 375.028 280.002C375.64 280.002 375.668 279.631 375.862 276.942V276.94V276.937H375.864C375.972 275.443 376.132 273.238 376.472 269.986C376.575 269.011 376.673 266.712 376.673 266.712C377.082 266.915 377.505 267.196 378.138 267.615C378.974 268.168 380.171 268.963 382.182 270.14C382.584 270.288 383.165 270.439 383.455 270.126C383.635 269.932 383.617 269.767 383.597 269.582C383.592 269.548 383.587 269.513 383.585 269.479C383.528 268.705 383.284 268.321 380.887 266.335C380.105 265.688 379.545 265.261 379.075 264.9C378.894 264.763 378.725 264.633 378.563 264.507C379.598 263.984 390.941 257.652 391.946 256.647ZM198.266 69.5047C198.308 69.5867 198.332 69.6763 198.338 69.7677C198.372 71.1821 186.684 82.9453 181.694 87.3074C182.317 88.0648 186.164 91.5517 189.52 94.5931L189.538 94.6093C190.104 95.1227 190.657 95.6232 191.177 96.0955C194.547 99.1528 194.481 99.4316 194.389 99.8131C194.359 99.9199 194.303 100.017 194.226 100.097C194.15 100.177 194.054 100.236 193.948 100.27C192.676 100.629 182.594 92.5926 179.553 89.5307C179.043 91.7693 178.253 100.188 177.721 105.855C177.438 108.87 177.228 111.107 177.172 111.218C177.133 111.297 177.076 111.366 177.006 111.419C176.936 111.472 176.854 111.509 176.768 111.525C176.681 111.542 176.592 111.538 176.507 111.513C176.422 111.49 176.344 111.446 176.279 111.387C174.512 109.787 175.405 101.631 176.043 95.8094L176.043 95.8034C176.22 94.187 176.377 92.7509 176.452 91.6854C175.983 92.0389 175.301 92.5989 174.064 93.616C173.453 94.1182 172.706 94.7322 171.782 95.4876C169.915 97.0218 169.81 97.2457 169.547 97.8051C169.491 97.9255 169.427 98.0617 169.337 98.2296C168.336 100.147 165.957 98.2207 167.052 95.9632C167.721 94.5858 168.077 94.2944 173.105 90.1791C173.966 89.4742 174.965 88.6569 176.125 87.7027C176.411 87.4673 176.685 87.2411 176.848 87.0903C176.608 86.8823 164.575 75.5145 164.497 75.19C164.225 74.1755 164.577 73.7596 164.911 73.5905C166.915 72.5668 176.004 81.8007 177.515 83.4596C177.535 83.2309 177.554 82.9521 177.57 82.6916C177.625 81.7838 177.821 79.9988 178.088 77.5611L178.089 77.5552C178.357 75.1039 178.698 71.9933 179.041 68.4515L179.042 68.4458C179.542 63.3217 179.572 63.0132 180.657 62.8419C182.472 62.5432 181.716 69.5696 180.814 77.9539C180.584 80.0822 180.346 82.2982 180.138 84.5037C188.176 77.8059 192.291 73.723 194.58 71.4515C196.9 69.1503 197.345 68.7084 198.098 69.2901C198.168 69.3498 198.225 69.4227 198.266 69.5047ZM288.849 275.694C286.342 277.049 286.21 277.107 285.757 277.296C285.44 277.431 284.962 277.634 283.386 278.404C282.433 278.871 281.192 279.508 280.086 280.072C278.848 280.708 277.781 281.254 277.486 281.375C277.559 280.155 277.959 272.516 277.765 271.84C277.89 271.323 277.963 270.795 277.977 270.263C277.984 269.893 277.849 269.532 277.6 269.258C277.351 268.983 277.006 268.814 276.636 268.785C274.981 268.677 274.917 270.613 274.924 272.262C274.933 274.269 274.851 275.422 274.776 276.512C274.7 277.58 274.63 278.583 274.652 280.26C274.536 280.198 274.403 280.127 274.257 280.05L274.022 279.924L274.017 279.922C271.689 278.669 266.627 275.953 264.978 276.995C264.806 277.123 264.672 277.296 264.592 277.495C264.509 277.694 264.486 277.911 264.521 278.123C264.555 278.336 264.646 278.535 264.786 278.697C264.923 278.861 265.106 278.983 265.309 279.051C270.75 281.569 272.249 282.293 273.005 282.659C273.444 282.872 273.631 282.963 274.198 283.214C273.894 283.415 273.549 283.628 273.131 283.886C272.207 284.455 270.921 285.246 268.919 286.642C266.461 288.369 268.005 291.351 269.328 290.131C270.923 288.769 272.669 287.597 274.534 286.637C274.609 294.975 275.436 295.72 275.754 296.006C275.836 296.086 275.932 296.15 276.039 296.191C276.147 296.232 276.261 296.25 276.375 296.243C276.492 296.239 276.604 296.209 276.707 296.159C276.809 296.109 276.901 296.035 276.974 295.949C277.26 295.588 277.205 295.142 277.038 293.798C277.017 293.636 276.997 293.463 276.974 293.275C277.058 292.953 277.122 291.152 277.186 289.306C277.26 287.234 277.335 285.102 277.445 284.942C277.57 284.953 277.691 284.992 277.799 285.058C279.912 286.1 281.512 286.905 282.732 287.519C285.824 289.073 286.457 289.391 286.74 289.196C286.813 289.148 286.861 289.064 286.925 288.957L286.962 288.895C287.905 287.243 283.779 285.063 281.258 283.728C280.916 283.548 280.603 283.381 280.335 283.235C283.413 281.576 286.393 279.746 289.265 277.751C290.949 276.316 289.592 275.288 288.849 275.694ZM349.678 341.342C349.719 341.425 349.744 341.516 349.749 341.608C349.797 343.022 338.121 354.771 333.11 359.152C333.706 359.867 337.428 363.242 341.032 366.507L341.034 366.509L341.041 366.516C341.562 366.989 342.08 367.46 342.588 367.919C345.956 370.977 345.89 371.253 345.798 371.637C345.768 371.744 345.714 371.843 345.636 371.92C345.558 372 345.462 372.06 345.357 372.094C344.096 372.43 334.005 364.419 330.962 361.354C330.443 363.612 329.632 372.254 329.099 377.925V377.93C328.827 380.825 328.629 382.943 328.578 383.044C328.54 383.121 328.482 383.19 328.412 383.242C328.341 383.295 328.261 383.332 328.174 383.348C325.667 383.738 326.887 372.608 327.548 366.573L327.55 366.571V366.557C327.694 365.239 327.813 364.165 327.859 363.509C327.342 363.9 326.451 364.631 325.213 365.65L325.208 365.655L324.374 366.34C324.004 366.644 323.608 366.969 323.188 367.311C321.319 368.84 321.218 369.055 320.951 369.626C320.896 369.745 320.832 369.878 320.745 370.042C319.742 371.959 317.361 370.035 318.46 367.775C319.148 366.363 319.233 366.292 325.448 361.22L326.401 360.443L327.6 359.462L327.667 359.408C327.806 359.293 327.943 359.181 328.057 359.083C328.135 359.017 328.204 358.958 328.261 358.905C328.032 358.722 315.986 347.329 315.908 347C315.636 345.988 315.988 345.57 316.322 345.401C318.332 344.379 327.372 353.588 328.926 355.272C329.232 351.762 329.435 349.909 329.684 347.617C329.883 345.794 330.114 343.694 330.45 340.259C330.952 335.132 330.984 334.826 332.068 334.652C333.884 334.369 333.128 341.397 332.225 349.774C331.997 351.901 331.757 354.116 331.549 356.318C331.688 356.179 332.12 355.816 332.794 355.251C335.152 353.275 340.46 348.824 346.5 342.803L346.502 342.8C348.229 341.075 348.753 340.552 349.507 341.13C349.578 341.189 349.637 341.26 349.678 341.342ZM103.862 286.539C104.387 286.505 104.927 286.235 105.653 285.874C107.944 284.734 112.085 282.675 123.411 284.117C124.42 284.156 125.133 284.288 125.694 284.393C126.816 284.604 127.324 284.697 128.367 283.69C129.82 282.319 139.844 269.066 139.986 268.862C140.829 267.697 142.164 266.218 143.515 264.72C146.533 261.372 149.633 257.938 147.508 257.73C143.397 257.031 139.198 257.031 135.087 257.73C131.738 258.301 128.467 259.258 125.337 260.579C117.951 264.361 111.627 269.929 106.94 276.777C105.341 279.325 103.956 281.99 102.622 284.684C102.517 284.887 102.469 285.113 102.482 285.342C102.494 285.568 102.568 285.787 102.695 285.977C102.821 286.167 102.997 286.32 103.202 286.418C103.407 286.516 103.635 286.557 103.862 286.539ZM145.486 322.395C145.694 322.509 145.862 322.681 145.97 322.891C146.616 324.317 143.947 327.6 131.402 343.043C122.905 353.501 109.875 369.539 90.2757 394.352C88.9884 395.981 87.9686 397.295 87.1512 398.346L87.1501 398.349C84.1951 402.155 83.8887 402.551 83.1603 402.101C82.9272 401.95 82.6896 401.644 82.8952 400.958C84.9677 394.165 142.671 322.256 144.807 322.256C145.042 322.233 145.279 322.281 145.486 322.395ZM102.948 393.975C100.739 396.678 103.031 399.089 104.612 396.777C105.642 394.926 112.92 390.9 121.094 391.19C122.081 391.226 122.334 391.576 121.937 392.611C120.906 395.273 115.296 398.742 113.016 400.151C112.511 400.465 112.169 400.675 112.077 400.755C111.665 401.038 111.331 401.42 111.104 401.863C110.877 402.309 110.764 402.802 110.777 403.303C110.789 403.801 110.926 404.29 111.175 404.724C111.424 405.156 111.777 405.519 112.203 405.782C112.727 406.168 113.262 406.54 113.774 406.899C115.606 408.181 117.166 409.273 117.07 410.002C116.882 411.417 111.707 413.567 102.217 417.045C100.647 417.62 100.883 419.558 104.605 419.558C108.684 419.272 112.631 417.995 116.103 415.836C126.037 410.315 119.431 406.234 115.942 404.079C115.22 403.632 114.631 403.268 114.351 402.992C114.418 402.944 114.619 402.836 114.922 402.674C117.017 401.548 124.006 397.791 125.673 393.148C129.041 383.763 108.537 387.148 102.948 393.975ZM67.0739 369.681C69.7702 359.159 77.9505 351.646 82.6119 361.124C85.8611 367.725 83.3362 375.924 80.5028 375.684C80.309 375.679 80.1194 375.627 79.9492 375.535C79.7789 375.441 79.6327 375.311 79.5225 375.151C79.3786 374.779 79.3167 374.379 79.3411 373.979C79.3656 373.582 79.4757 373.191 79.6642 372.839C81.7253 366.754 78.7342 358.889 75.9625 361.348C72.2882 364.613 69.3909 372.259 70.6887 375.213C71.2417 376.477 71.2189 378.348 69.8958 378.762C68.1364 379.317 67.5446 377.939 67.0282 376.728C65.5064 373.202 62.5679 372.768 60.8587 374.214C58.8392 376.303 57.6311 379.045 57.4517 381.945C57.4517 382.998 58.2115 383.645 58.8591 384.195C59.492 384.735 60.0178 385.182 59.6225 385.829C59.489 386.032 59.2905 386.186 59.0592 386.261C58.828 386.336 58.5778 386.332 58.3497 386.247C57.0759 385.969 55.945 385.24 55.1645 384.195C54.3839 383.151 54.0057 381.86 54.0996 380.56C54.053 379.047 54.3663 377.544 55.0136 376.175C56.4829 372.245 58.416 370.264 61.4779 369.548C63.2529 369.167 65.1069 369.503 66.6352 370.483L66.8454 370.579C66.9059 370.275 66.9822 369.976 67.0739 369.681ZM162.795 338.409C161.613 335.543 159.692 337.451 156.894 340.23C155.766 341.352 154.495 342.615 153.072 343.762C148.39 347.53 134.363 361.112 130.048 365.301C115.303 379.609 115.598 379.989 116.046 380.564C116.101 380.642 116.174 380.704 116.259 380.747C116.344 380.791 116.438 380.814 116.533 380.811C119.112 380.811 161.259 341.233 162.747 338.936C162.797 338.859 162.828 338.77 162.836 338.678C162.844 338.587 162.83 338.493 162.795 338.409ZM125.236 321.148L125.234 321.15C115.947 334.405 101.74 354.68 99.6077 358.569C99.0273 359.643 97.5466 359.351 97.9236 357.778C99.1141 352.875 126.9 311.596 131.129 308.23C131.324 308.007 131.59 307.856 131.883 307.803C132.176 307.753 132.477 307.803 132.737 307.947C132.997 308.091 133.2 308.32 133.311 308.594C133.423 308.87 133.437 309.176 133.35 309.46C133.291 309.649 129.878 314.521 125.236 321.148ZM244.952 245.212C240.567 243.428 236.388 241.175 232.487 238.495C225.726 233.582 219.848 227.555 215.108 220.672C214.36 219.445 213.778 218.455 213.313 217.664C212.12 215.634 211.697 214.915 211.238 214.891C210.987 214.878 210.724 215.073 210.318 215.375L210.238 215.435C187.423 229.058 167.046 246.403 149.953 266.749C146.569 270.862 146.596 270.964 147.28 272.137C157.165 289.153 181.187 307.917 198.192 317.544C199.432 318.257 199.816 318.25 212.16 303.251C226.312 286.059 237.937 266.934 246.682 246.456C246.679 245.4 246.277 245.382 245.754 245.361C245.505 245.35 245.228 245.338 244.952 245.212ZM205.714 275.646C198.418 274.659 194.209 272.847 190.064 266.712C179.891 251.631 196.489 231.4 214.127 239.482C231.112 247.264 227.865 274.563 205.714 275.646ZM191.704 320.885C194.218 322.288 194.721 322.569 193.967 323.403L193.765 323.622C191.765 325.795 183.828 334.423 180.833 335.267C168.667 333.265 145.427 313.182 137.511 301.999C135.01 298.912 133.056 295.416 131.735 291.669L131.622 291.408L131.524 291.18C130.946 289.843 130.829 289.571 131.164 289.119C134.262 284.951 140.87 276.86 140.923 276.809C142.12 275.42 142.825 276.462 144.917 279.554C148.171 284.361 154.784 294.134 171.834 307.428C182.453 315.714 188.606 319.153 191.704 320.885ZM258.497 201.032C258.472 200.555 258.347 200.089 258.125 199.666C257.903 199.243 257.595 198.873 257.218 198.58C256.841 198.288 256.404 198.08 255.938 197.972C255.474 197.863 254.992 197.857 254.524 197.952C242.658 199.323 233.986 201.855 217.278 210.458C216.364 210.931 216.412 211.276 218.005 213.657C224.803 223.802 231.454 232.357 245.493 238.463C246.152 238.748 246.725 239.002 247.226 239.221C250.434 240.631 250.667 240.734 250.978 240.176C257.012 229.064 259.302 208.001 258.497 201.032ZM196.193 268.997C194.182 267.395 192.594 265.325 191.568 262.969C190.332 260.081 189.987 256.889 190.577 253.802C191.166 250.715 192.663 247.875 194.876 245.644C197.088 243.412 199.916 241.892 202.998 241.278C206.08 240.663 209.274 240.983 212.174 242.194C214.539 243.202 216.621 244.774 218.239 246.771C219.857 248.768 220.961 251.131 221.456 253.653C221.95 256.176 221.818 258.783 221.074 261.242C220.329 263.703 218.993 265.944 217.183 267.77C215.372 269.593 213.142 270.948 210.688 271.714C208.234 272.479 205.63 272.63 203.103 272.157C200.576 271.684 198.204 270.599 196.193 268.997ZM217.356 260.218C218.133 258.114 218.31 255.833 217.868 253.635C217.489 251.784 216.683 250.045 215.514 248.56C214.346 247.075 212.846 245.884 211.135 245.08C209.425 244.276 207.55 243.883 205.661 243.933C203.771 243.981 201.92 244.47 200.253 245.361C198.278 246.426 196.637 248.016 195.514 249.956C194.39 251.898 193.828 254.115 193.889 256.356C193.951 258.598 194.634 260.78 195.862 262.656C197.091 264.532 198.816 266.031 200.846 266.986C202.877 267.939 205.132 268.309 207.361 268.058C209.589 267.804 211.704 266.936 213.469 265.554C215.234 264.169 216.58 262.32 217.356 260.218ZM212 314.158C210.919 313.948 209.454 315.794 207.255 318.566C205.888 320.286 204.239 322.363 202.222 324.527C202.154 324.6 202.172 324.58 202.195 324.555C202.297 324.44 202.485 324.232 195.397 331.839C194.59 332.703 193.957 333.318 193.355 333.902C192.347 334.883 191.425 335.776 189.913 337.613C188.809 338.929 189.332 340.337 190.002 342.142C190.313 342.981 190.656 343.904 190.882 344.944C191.203 346.413 191.43 347.425 191.592 348.143C191.886 349.454 191.959 349.776 191.979 350.103C191.986 350.211 191.987 350.316 191.988 350.46C191.993 350.953 192.002 351.872 192.267 354.682C192.317 358.117 191.579 359.908 191.112 361.044C190.682 362.088 190.482 362.575 191.341 363.272C192.433 364.163 192.534 364.083 198.643 359.312L198.854 359.147C217.514 344.537 215.964 314.926 212 314.158ZM204.126 251.976C206.295 250.866 208.583 250.006 210.947 249.41C211.365 249.33 211.646 249.2 211.87 249.095C212.326 248.88 212.537 248.782 213.168 249.479C214.461 250.964 216.387 253.941 214.518 254.531C207.823 256.647 207.825 256.649 208.403 257.547C208.566 257.798 208.774 258.123 208.892 258.584C208.988 258.934 208.979 259.302 208.867 259.647C208.755 259.99 208.546 260.293 208.264 260.52C206.301 261.797 204.193 262.839 201.985 263.618C200.225 264.064 198.354 263.554 196.928 259.624C196.638 258.827 197.036 258.735 198.207 258.465C199.164 258.246 200.637 257.91 202.673 256.971C205.125 255.845 204.581 254.999 204.029 254.142C203.599 253.475 203.165 252.799 204.126 251.976Z" fill="black"/>
<path d="M426.102 57.253C394.981 13.9819 337.913 6.25635 293.821 31.0006C228.07 67.8965 227.929 175.07 307.634 207.455C337.36 219.534 378.296 217.141 405.558 195.489C420.397 183.703 430.446 167.662 436.328 156.097C450.76 122.247 443.553 81.5128 426.102 57.253ZM441.09 128.003C440.861 136.892 433.362 164.746 412.557 184.63C360.139 234.724 277.141 211.294 254.604 147.945C241.495 111.094 249.65 58.5485 298.759 31.6198C352.957 1.90115 426.351 29.0926 439.097 94.6356C441.51 105.584 442.184 116.845 441.09 128.003Z" fill="black"/>
<path d="M354.543 145.746C347.779 143.311 341.322 148.164 337.783 153.71C330.4 165.283 332.938 181.815 346.783 180.979C350.803 180.979 358.615 174.419 361.099 165.039C363.528 155.874 359.869 147.664 354.543 145.746ZM360.187 160.236C359.38 170.061 352.19 177.862 347.702 178.744C344.793 179.313 352.043 173.603 353.222 161.652C354.641 147.127 345.604 149.24 347.455 147.558C348.57 146.916 349.87 146.674 351.141 146.873C355.002 146.037 360.889 151.724 360.187 160.236Z" fill="black" fill-opacity="0.5"/>
<path d="M297.612 119.595C291.671 113.039 280.335 113.914 274.618 128.536C269.383 141.921 281.656 160.754 296.474 144.497C301.579 138.898 303.037 125.59 297.612 119.595ZM293.634 119.019C291.811 119.654 290.193 120.769 288.952 122.248C286.555 124.884 284.887 128.1 284.11 131.577C283.991 132.434 283.425 133.177 283.365 134.061C283.196 136.147 282.527 141.556 284.005 144.343C284.69 145.635 285.131 147.115 286.541 147.901C287.053 148.187 286.927 148.788 286.541 148.776C284.828 148.988 283.089 148.724 281.514 148.011C274.118 143.628 274.415 130.933 278.973 124.601C285.698 113.656 295.137 118.082 293.634 119.019Z" fill="black" fill-opacity="0.5"/>
<path d="M339.841 64.8346C335.239 61.919 324.76 63.0318 319.078 65.0129C305.521 69.7337 298.423 80.135 306.531 85.9937C313.431 90.9819 329.918 86.3913 337.033 81.5357C345.291 75.8986 345.401 68.3581 339.841 64.8346ZM307.673 81.1815C306.759 82.6051 307.095 83.4185 306.22 82.436C304.563 80.5737 305.356 77.7426 307.895 74.7675C316.594 64.5741 334.147 63.2854 339.096 66.6878C340.381 67.5976 341.263 68.968 341.562 70.5128C341.859 72.0577 341.548 73.6581 340.696 74.98C340.335 75.5193 338.683 74.1369 337.835 73.4468C331.832 68.55 312.456 73.7233 307.673 81.1815Z" fill="black" fill-opacity="0.5"/>
<path d="M380.635 113.151C386.314 111.7 386.72 106.109 387.143 100.28C386.547 94.2677 386.048 88.5575 381.047 85.0638C371.235 78.211 366.608 110.617 380.635 113.151ZM377.528 86.3182C379.749 85.3928 382.418 88.0228 383.188 90.0656C388.1 103.09 383.608 111.773 380.283 111.28C379.669 111.186 379.504 110.957 379.799 110.407C381.993 106.294 382.664 96.8544 379.02 89.6383C378.19 87.9977 376.865 87.8286 376.943 86.7341C376.938 86.3228 377.285 86.4188 377.528 86.3182Z" fill="black" fill-opacity="0.5"/>
<path d="M285.97 62.9655C286.379 58.624 283.377 56.6749 280.093 57.5477C273.01 59.4306 265.997 70.9698 266.712 77.4272C267.946 88.5643 282.76 80.0984 285.97 62.9655ZM271.732 76.6458C271.36 77.8175 271.223 79.0516 271.33 80.2766C271.191 81.0901 269.475 80.5051 268.91 79.0999C265.892 71.6393 279.449 55.3633 283.379 59.7413C286.155 62.8307 280.052 58.6811 272.74 73.5907C272.399 74.2854 272.011 75.9351 271.732 76.6458Z" fill="black" fill-opacity="0.5"/>
<path d="M401.888 142.246C398.655 146.932 397.396 153.872 401.781 156.586C407.059 159.852 415.93 152.981 416.599 143.79C417.209 135.439 407.589 133.981 401.888 142.246ZM412.054 151.066C408.325 155.494 404.987 155.951 404.477 155.773C403.46 155.414 403.632 154.768 404.249 154.48C406.243 153.177 407.864 151.378 408.953 149.261C413.827 141.215 409.438 138.704 411.727 138.62C414.799 138.508 416.327 146.011 412.054 151.066Z" fill="black" fill-opacity="0.5"/>
<path d="M425.924 92.9516C421.391 93.8656 416.22 103.533 419.021 111.73C422.752 122.65 433.606 114.449 432.978 102.501C432.571 94.599 428.719 92.3849 425.924 92.9516ZM423.575 114.936C421.196 114.095 424.066 112.778 424.83 109.909C424.921 109.566 427.969 101.566 424.873 97.1125C423.916 95.7415 423.852 95.8215 424.873 95.1771C425.41 94.9278 425.995 94.8017 426.587 94.8079C427.176 94.8141 427.759 94.9523 428.291 95.2126C428.821 95.4728 429.288 95.8485 429.653 96.3119C430.021 96.7755 430.279 97.3152 430.412 97.8917C433.325 109.196 427.067 116.156 423.575 114.936Z" fill="black" fill-opacity="0.5"/>
<path d="M377.151 41.1711C371.02 45.0556 388.562 59.7779 395.227 54.9382C398.347 52.6738 394.361 47.6468 390.683 44.7494C387.477 42.2222 380.873 38.813 377.151 41.1711ZM393.518 53.8049C392.604 54.3304 392.186 54.4607 390.571 52.2237C387.49 48.8053 383.627 46.1855 379.31 44.5895C378.51 44.3975 377.439 44.69 377.711 43.6206C378.067 42.2016 378.778 42.3502 380.263 42.3136C386.883 42.1514 397.247 51.6867 393.518 53.8049Z" fill="black" fill-opacity="0.5"/>
<path d="M372.779 185.8C372.398 186.398 372.179 187.084 372.137 187.792C372.099 188.499 372.24 189.205 372.551 189.842C374.34 192.475 379.609 192.664 383.638 192.045C386.503 191.606 387.065 190.928 387.68 189.404C390.769 181.897 376.835 181.066 372.779 185.8ZM386.135 186.851C385.754 191.533 384.157 185.366 376.202 187.877C375.718 188.03 374.9 188.597 374.374 188.707C372.663 189.056 374.374 182.994 383.533 184.838C384.287 184.991 386.275 186.09 386.135 186.851Z" fill="black" fill-opacity="0.5"/>
<path d="M296.842 175.916C294.582 179.236 302.367 189.831 307.977 188.958C316.676 187.599 301.849 168.562 296.842 175.916ZM305.916 186.31C305.559 185.595 305.157 184.904 304.709 184.242C303.645 182.451 302.292 180.848 300.706 179.498C299.509 178.342 298.394 178.685 298.465 177.314C298.501 176.578 298.634 176.42 299.408 176.4C303.699 176.261 306.983 181.121 308.82 185.471C309.529 187.142 306.585 188.211 305.916 186.31Z" fill="black" fill-opacity="0.5"/>
<path d="M340.803 36.0872C356.401 37.2069 349.616 20.7959 336.176 28.9763C332.292 31.3413 332.513 35.4931 340.803 36.0872ZM347.528 29.9177C348.371 30.6581 347.912 31.4921 347.199 32.2027C345.885 33.512 346.356 32.1433 343.84 31.9125C337.929 31.3687 339.023 34.2844 337.508 33.7405C330.715 31.3047 343.513 26.376 347.528 29.9109V29.9177Z" fill="black" fill-opacity="0.5"/>
<path d="M343.239 109.299C338.683 111.403 338.571 113.028 337.856 115.452C337.458 116.798 338.336 117.876 339.24 118.841C339.857 119.496 340.815 119.512 342.078 119.732C343.42 119.765 344.752 119.5 345.979 118.956C347.206 118.412 348.298 117.602 349.173 116.585C350.83 115.274 351.892 111.988 350.627 110.489C349.706 109.494 348.476 108.837 347.137 108.621C345.798 108.405 344.427 108.644 343.239 109.299ZM349.068 112.358C349.068 115.219 346.719 112.308 343.239 114.812C341.308 116.204 341.046 117.554 340.44 117.232C339.298 116.643 339.298 113.258 343.239 111.206C346.779 109.362 349.454 110.75 349.068 112.358Z" fill="black" fill-opacity="0.5"/>
</svg>
