<svg width="94" opacity="0.02" height="95" viewBox="0 0 94 95" fill="none" xmlns="http://www.w3.org/2000/svg">
<path d="M93.04 47.5C93.04 73.1923 72.2123 94.02 46.52 94.02C20.8277 94.02 0 73.1923 0 47.5C0 21.8077 20.8277 0.980011 46.52 0.980011C72.2123 0.980011 93.04 21.8077 93.04 47.5Z"/>
<path d="M92.9927 47.51C92.9927 73.1845 72.1794 93.9978 46.5049 93.9978C38.4989 93.9978 32.5585 89.1718 32.5585 81.7338C32.5585 60.3494 47.8995 46.4031 47.8995 42.3963C44.6454 42.3963 32.5585 60.1324 12.5688 65.1753C4.94412 67.0989 0.0170898 56.918 0.0170898 47.51C0.0170898 21.8355 20.8304 1.0222 46.5049 1.0222C72.1794 1.0222 92.9927 21.8355 92.9927 47.51Z" fill="black"/>
<path d="M63.7631 16.2181C64.0627 15.4086 65.2076 15.4086 65.5071 16.2181L67.1235 20.5864C67.2177 20.8408 67.4183 21.0415 67.6728 21.1357L72.0411 22.7521C72.8505 23.0516 72.8505 24.1965 72.0411 24.496L67.6728 26.1124C67.4183 26.2066 67.2177 26.4072 67.1235 26.6617L65.5071 31.03C65.2076 31.8395 64.0627 31.8395 63.7631 31.03L62.1467 26.6617C62.0526 26.4072 61.8519 26.2066 61.5974 26.1124L57.2291 24.496C56.4197 24.1965 56.4197 23.0516 57.2291 22.7521L61.5974 21.1357C61.8519 21.0415 62.0526 20.8408 62.1467 20.5864L63.7631 16.2181Z" fill="white"/>
<path d="M46.5044 1.5222C71.9026 1.5222 92.4924 22.1114 92.4927 47.5095C92.4927 72.9079 71.9027 93.4978 46.5044 93.4978C42.5997 93.4977 39.235 92.3214 36.855 90.2761C34.4816 88.2365 33.0582 85.3097 33.0581 81.7341C33.0581 71.1642 36.8497 62.4193 40.6626 55.7976C42.571 52.4834 44.4756 49.7155 45.9214 47.4988C46.6406 46.396 47.2522 45.421 47.6841 44.5906C48.1066 43.7782 48.3999 43.028 48.3999 42.3962V41.8962H47.8999C47.5901 41.8962 47.2736 41.9996 46.9692 42.1462C46.6599 42.2953 46.3263 42.5068 45.9731 42.7634C45.2674 43.2763 44.4323 44.0062 43.48 44.8777C41.5625 46.6324 39.1405 48.9892 36.1851 51.5144C30.2821 56.5581 22.3328 62.1961 12.4468 64.6902C8.92895 65.5776 5.98072 63.7094 3.85693 60.3259C1.73178 56.9401 0.51709 52.1392 0.51709 47.5095C0.517352 22.1115 21.1064 1.52246 46.5044 1.5222ZM65.9761 16.0447C65.5155 14.7999 63.755 14.7999 63.2944 16.0447L61.6782 20.4128C61.6347 20.5303 61.5418 20.6231 61.4243 20.6667L57.0552 22.2829C55.8109 22.7437 55.811 24.5037 57.0552 24.9646L61.4243 26.5818C61.5417 26.6254 61.6348 26.7182 61.6782 26.8357L63.2944 31.2038C63.7552 32.4482 65.5154 32.4482 65.9761 31.2038L67.5923 26.8357C67.6358 26.7181 67.7287 26.6253 67.8462 26.5818L72.2144 24.9646C73.4591 24.504 73.4591 22.7436 72.2144 22.2829L67.8462 20.6667C67.7286 20.6232 67.6358 20.5304 67.5923 20.4128L65.9761 16.0447ZM64.2319 16.3913C64.3705 16.0174 64.9001 16.0173 65.0386 16.3913L66.6548 20.7595C66.7996 21.1509 67.1082 21.4594 67.4995 21.6042L71.8677 23.2214C72.2415 23.36 72.2416 23.8886 71.8677 24.0271L67.4995 25.6433C67.1082 25.7881 66.7996 26.0968 66.6548 26.488L65.0386 30.8562C64.9001 31.2303 64.3704 31.2303 64.2319 30.8562L62.6157 26.488C62.4709 26.0967 62.1623 25.7881 61.771 25.6433L57.4028 24.0271C57.0287 23.8886 57.0287 23.3599 57.4028 23.2214L61.771 21.6042C62.1623 21.4594 62.4709 21.1508 62.6157 20.7595L64.2319 16.3913Z"/>
</svg>
