<svg width="266" height="51" viewBox="0 0 266 51" fill="none" xmlns="http://www.w3.org/2000/svg">
<path d="M51.3226 25.5C51.3226 39.5833 39.8337 51 25.6613 51C22.324 51 19.1354 50.3669 16.2106 49.215C13.26 46.92 13.4147 43.35 14.543 40.545C17.0667 34.2711 23.5245 28.05 25.0642 24.735C22.2414 25.5 12.4131 36.2567 7.10123 38.505C4.27849 39.27 3.02604 37.5405 2.73881 36.975C0.986825 33.5259 0 29.6275 0 25.5C0 11.4167 11.489 0 25.6613 0C39.8337 0 51.3226 11.4167 51.3226 25.5Z" fill="black"/>
<path d="M33.5324 14.28L34.3641 16.5135L36.6117 17.34L34.3641 18.1665L33.5324 20.4L32.7007 18.1665L30.453 17.34L32.7007 16.5135L33.5324 14.28Z" fill="white"/>
<path d="M77.9591 39.015V31.161L77.1379 28.611V23.307C77.1379 21.913 76.7102 20.91 75.8549 20.298C75.0337 19.686 73.973 19.38 72.6729 19.38C71.4753 19.38 70.2094 19.618 68.875 20.094C67.5406 20.57 66.3602 21.216 65.3337 22.032L62.3057 17.544C63.4348 16.32 64.9745 15.351 66.9247 14.637C68.875 13.889 70.9279 13.515 73.0834 13.515C75.2048 13.515 77.0695 13.889 78.6776 14.637C80.2857 15.351 81.5517 16.405 82.4755 17.799C83.3993 19.193 83.8612 20.91 83.8612 22.95V31.059C83.8612 32.385 83.8612 33.711 83.8612 35.037C83.8954 36.363 83.9467 37.689 84.0152 39.015H77.9591ZM70.9279 39.525C68.088 39.525 65.8127 38.845 64.102 37.485C62.4254 36.091 61.5872 34.306 61.5872 32.13C61.5872 30.634 61.9806 29.308 62.7676 28.152C63.5887 26.996 64.7692 26.095 66.3088 25.449C67.8485 24.769 69.7132 24.429 71.903 24.429C74.9482 24.429 77.2235 25.092 78.7289 26.418C80.2344 27.71 80.9871 29.444 80.9871 31.62H79.0882C79.0882 34.136 78.421 36.091 77.0866 37.485C75.7522 38.845 73.6993 39.525 70.9279 39.525ZM72.7755 34.629C74.0757 34.629 75.1363 34.374 75.9575 33.864C76.7787 33.32 77.1892 32.623 77.1892 31.773C77.1892 30.923 76.7787 30.243 75.9575 29.733C75.1705 29.223 74.1099 28.968 72.7755 28.968C71.4753 28.968 70.4147 29.223 69.5935 29.733C68.8065 30.243 68.4131 30.923 68.4131 31.773C68.4131 32.623 68.8237 33.32 69.6448 33.864C70.466 34.374 71.5095 34.629 72.7755 34.629Z" fill="black"/>
<path d="M97.8959 39.015C95.5009 39.015 93.5848 38.386 92.1478 37.128C90.745 35.87 90.0436 34.102 90.0436 31.824V4.488L93.0716 7.497H86.0917V1.785H96.8695V31.977C96.8695 32.351 97.0063 32.691 97.28 32.997C97.5538 33.269 97.8959 33.405 98.3065 33.405H101.078V39.015H97.8959Z" fill="black"/>
<path d="M103.487 49.215V43.656H118.833C119.483 43.656 119.962 43.503 120.27 43.197C120.578 42.925 120.732 42.517 120.732 41.973C120.732 41.395 120.578 40.97 120.27 40.698C119.962 40.426 119.483 40.29 118.833 40.29H109.8C108.5 40.29 107.473 39.95 106.721 39.27C105.968 38.624 105.523 37.774 105.386 36.72C105.284 35.666 105.506 34.595 106.053 33.507L108.62 28.254L114.368 29.631L112.058 34.221C111.99 34.357 111.956 34.493 111.956 34.629C111.956 34.731 111.99 34.833 112.058 34.935C112.161 35.003 112.298 35.037 112.469 35.037H119.859C121.981 35.037 123.708 35.598 125.043 36.72C126.411 37.842 127.096 39.61 127.096 42.024C127.096 43.418 126.771 44.642 126.121 45.696C125.505 46.784 124.632 47.634 123.503 48.246C122.374 48.892 121.057 49.215 119.551 49.215H103.487ZM113.187 17.799L117.293 8.823H124.17L119.192 17.799H113.187ZM114.932 32.385C112.742 32.385 110.792 31.994 109.081 31.212C107.405 30.43 106.071 29.342 105.078 27.948C104.12 26.52 103.641 24.905 103.641 23.103V22.593C103.641 20.825 104.12 19.261 105.078 17.901C106.071 16.507 107.405 15.436 109.081 14.688C110.792 13.906 112.742 13.515 114.932 13.515C117.156 13.515 119.124 13.906 120.834 14.688C122.545 15.436 123.862 16.49 124.786 17.85C125.744 19.21 126.223 20.774 126.223 22.542V23.103C126.223 24.905 125.744 26.52 124.786 27.948C123.862 29.342 122.545 30.43 120.834 31.212C119.124 31.994 117.156 32.385 114.932 32.385ZM114.932 27.285C116.301 27.285 117.413 26.894 118.268 26.112C119.124 25.33 119.551 24.344 119.551 23.154V22.899C119.551 21.709 119.124 20.757 118.268 20.043C117.413 19.295 116.301 18.921 114.932 18.921C113.598 18.921 112.486 19.295 111.596 20.043C110.741 20.757 110.313 21.709 110.313 22.899V23.154C110.313 24.344 110.741 25.33 111.596 26.112C112.486 26.894 113.598 27.285 114.932 27.285Z" fill="black"/>
<path d="M142.843 39.525C140.346 39.525 138.087 38.981 136.069 37.893C134.084 36.805 132.51 35.309 131.347 33.405C130.218 31.467 129.653 29.24 129.653 26.724V26.214C129.653 23.732 130.218 21.539 131.347 19.635C132.51 17.731 134.084 16.235 136.069 15.147C138.087 14.059 140.346 13.515 142.843 13.515C145.307 13.515 147.531 14.059 149.515 15.147C151.5 16.201 153.057 17.697 154.186 19.635C155.349 21.539 155.931 23.732 155.931 26.214V26.724C155.931 29.24 155.349 31.467 154.186 33.405C153.057 35.309 151.5 36.805 149.515 37.893C147.531 38.981 145.307 39.525 142.843 39.525ZM142.843 33.609C144.075 33.609 145.17 33.32 146.128 32.742C147.086 32.13 147.822 31.314 148.335 30.294C148.882 29.24 149.156 28.05 149.156 26.724V26.214C149.156 24.888 148.882 23.715 148.335 22.695C147.822 21.675 147.086 20.876 146.128 20.298C145.17 19.72 144.075 19.431 142.843 19.431C141.577 19.431 140.465 19.737 139.507 20.349C138.584 20.927 137.848 21.726 137.3 22.746C136.753 23.732 136.479 24.888 136.479 26.214V26.724C136.479 28.05 136.753 29.24 137.3 30.294C137.848 31.314 138.584 32.13 139.507 32.742C140.465 33.32 141.577 33.609 142.843 33.609Z" fill="black"/>
<path d="M160.813 39.015V14.025H167.382V20.961H165.586C165.928 19.397 166.441 18.139 167.125 17.187C167.81 16.201 168.597 15.453 169.486 14.943C170.376 14.399 171.265 14.025 172.155 13.821C173.079 13.617 173.9 13.515 174.618 13.515C177.458 13.515 179.716 14.45 181.393 16.32C183.104 18.156 183.959 20.74 183.959 24.072V39.015H177.133V25.143C177.133 23.205 176.723 21.811 175.902 20.961C175.115 20.111 174.037 19.686 172.668 19.686C171.71 19.686 170.855 19.907 170.102 20.349C169.349 20.757 168.751 21.386 168.306 22.236C167.861 23.052 167.639 24.089 167.639 25.347V39.015H160.813Z" fill="black"/>
<path d="M201.784 39.525C199.286 39.525 197.028 38.981 195.01 37.893C193.025 36.805 191.451 35.309 190.288 33.405C189.159 31.467 188.594 29.24 188.594 26.724V26.214C188.594 23.732 189.159 21.539 190.288 19.635C191.451 17.731 193.025 16.235 195.01 15.147C197.028 14.059 199.286 13.515 201.784 13.515C204.248 13.515 206.472 14.059 208.456 15.147C210.441 16.201 211.997 17.697 213.126 19.635C214.29 21.539 214.871 23.732 214.871 26.214V26.724C214.871 29.24 214.29 31.467 213.126 33.405C211.997 35.309 210.441 36.805 208.456 37.893C206.472 38.981 204.248 39.525 201.784 39.525ZM201.784 33.609C203.016 33.609 204.111 33.32 205.069 32.742C206.027 32.13 206.762 31.314 207.276 30.294C207.823 29.24 208.097 28.05 208.097 26.724V26.214C208.097 24.888 207.823 23.715 207.276 22.695C206.762 21.675 206.027 20.876 205.069 20.298C204.111 19.72 203.016 19.431 201.784 19.431C200.518 19.431 199.406 19.737 198.448 20.349C197.524 20.927 196.789 21.726 196.241 22.746C195.694 23.732 195.42 24.888 195.42 26.214V26.724C195.42 28.05 195.694 29.24 196.241 30.294C196.789 31.314 197.524 32.13 198.448 32.742C199.406 33.32 200.518 33.609 201.784 33.609Z" fill="black"/>
<path d="M225.669 39.015L216.123 14.025H223.205L230.544 34.629H227.927L235.266 14.025H242.349L232.854 39.015H225.669Z" fill="black"/>
<path d="M259.944 39.015V31.161L259.123 28.611V23.307C259.123 21.913 258.695 20.91 257.84 20.298C257.019 19.686 255.958 19.38 254.658 19.38C253.46 19.38 252.194 19.618 250.86 20.094C249.525 20.57 248.345 21.216 247.319 22.032L244.291 17.544C245.42 16.32 246.959 15.351 248.91 14.637C250.86 13.889 252.913 13.515 255.068 13.515C257.19 13.515 259.054 13.889 260.662 14.637C262.271 15.351 263.537 16.405 264.46 17.799C265.384 19.193 265.846 20.91 265.846 22.95V31.059C265.846 32.385 265.846 33.711 265.846 35.037C265.88 36.363 265.932 37.689 266 39.015H259.944ZM252.913 39.525C250.073 39.525 247.798 38.845 246.087 37.485C244.41 36.091 243.572 34.306 243.572 32.13C243.572 30.634 243.965 29.308 244.752 28.152C245.574 26.996 246.754 26.095 248.294 25.449C249.833 24.769 251.698 24.429 253.888 24.429C256.933 24.429 259.208 25.092 260.714 26.418C262.219 27.71 262.972 29.444 262.972 31.62H261.073C261.073 34.136 260.406 36.091 259.071 37.485C257.737 38.845 255.684 39.525 252.913 39.525ZM254.76 34.629C256.061 34.629 257.121 34.374 257.942 33.864C258.764 33.32 259.174 32.623 259.174 31.773C259.174 30.923 258.764 30.243 257.942 29.733C257.155 29.223 256.095 28.968 254.76 28.968C253.46 28.968 252.4 29.223 251.578 29.733C250.791 30.243 250.398 30.923 250.398 31.773C250.398 32.623 250.809 33.32 251.63 33.864C252.451 34.374 253.494 34.629 254.76 34.629Z" fill="black"/>
</svg>
