<svg width="157" height="161" viewBox="0 0 157 161" fill="none" xmlns="http://www.w3.org/2000/svg">
<g clip-path="url(#clip0_304_265)">
<path fill-rule="evenodd" clip-rule="evenodd" d="M32.1554 7.14156C27.1826 71.293 74.0948 113.308 128.5 132.486C129.434 132.817 129.925 133.878 129.589 134.854C129.254 135.829 128.224 136.357 127.29 136.026C71.3597 116.314 23.4575 72.8526 28.5706 6.90399C28.6483 5.87645 29.5161 5.09534 30.5088 5.15903C31.497 5.22174 32.2341 6.10941 32.1554 7.14156Z" fill="black"/>
<path fill-rule="evenodd" clip-rule="evenodd" d="M126.874 133.897C124.804 131.454 122.174 128.418 121.885 128.064C114.062 118.479 108.111 108.121 103.427 96.475C103.046 95.5302 103.484 94.4271 104.4 94.0146C105.317 93.6021 106.371 94.0374 106.753 94.9821C111.291 106.277 117.059 116.324 124.649 125.621C125.091 126.163 131.009 132.984 132.104 134.458C132.556 135.06 132.629 135.55 132.636 135.668C132.693 136.29 132.482 136.722 132.259 137.021C132.004 137.357 131.455 137.807 130.562 137.901C129.628 137.995 127.661 137.697 127.158 137.664C119.567 137.184 111.147 135.959 103.124 136.476C95.4721 136.969 88.1719 139.048 82.4359 145.17C81.7382 145.916 80.5963 145.941 79.89 145.229C79.1837 144.518 79.18 143.332 79.8777 142.586C86.292 135.742 94.4107 133.297 102.961 132.746C110.938 132.233 119.295 133.385 126.874 133.897Z" fill="black"/>
</g>
<defs>
<clipPath id="clip0_304_265">
<rect width="130" height="135.521" fill="white" transform="matrix(-0.976634 -0.214911 -0.214911 0.976634 156.44 28.2509)"/>
</clipPath>
</defs>
</svg>
