<svg width="52" height="51" viewBox="0 0 52 51" fill="none" xmlns="http://www.w3.org/2000/svg">
<g clip-path="url(#clip0_2751_137)">
<path fill-rule="evenodd" clip-rule="evenodd" d="M15.8425 30.4088C16.4139 30.4829 16.9924 30.4829 17.5638 30.4088C18.1209 30.3271 18.6688 30.1918 19.2 30.0051C20.3903 29.5515 21.5299 28.9746 22.6 28.2838C22.7604 28.2016 22.8829 28.0609 22.9423 27.8908C23.0016 27.7206 22.9932 27.5342 22.9188 27.3701C22.8329 27.2133 22.6919 27.094 22.5232 27.0351C22.3544 26.9763 22.1698 26.982 22.005 27.0513C20.8766 27.4475 19.7183 27.753 18.5413 27.9651C17.8391 28.1091 17.1298 28.2155 16.4163 28.2838H15.3538C16.5939 26.6592 17.3391 24.7113 17.5 22.6738C17.925 18.4238 15.8213 14.1738 10.8913 13.7488C9.30691 13.7395 7.74294 14.1064 6.32802 14.8194C4.91311 15.5324 3.68768 16.5711 2.75254 17.8501C1.70801 19.0758 1.08442 20.6044 0.973485 22.211C0.862553 23.8176 1.27014 25.4174 2.13629 26.7751C2.68537 27.5923 3.41173 28.2751 4.26129 28.7726L5.06879 29.1976C3.43875 30.8642 2.20416 32.8758 1.45629 35.0838C0.897966 36.7958 0.576239 38.576 0.500037 40.3751C0.405141 42.9993 0.576011 45.6265 1.01004 48.2163C1.01514 48.3124 1.03996 48.4064 1.08296 48.4925C1.12595 48.5786 1.18619 48.6549 1.25994 48.7167C1.33369 48.7784 1.41937 48.8244 1.51164 48.8517C1.60391 48.8789 1.7008 48.8869 1.79629 48.8751C1.96911 48.8537 2.12717 48.7669 2.23787 48.6325C2.34857 48.4981 2.40348 48.3263 2.39129 48.1526C2.26011 45.6146 2.3383 43.0702 2.62504 40.5451C2.81041 38.9275 3.13027 37.3283 3.58129 35.7638C4.17582 33.5821 5.19392 31.5387 6.57754 29.7501C7.15129 29.8988 7.72504 30.0476 8.29879 30.1538C8.45377 30.1848 8.61473 30.153 8.74623 30.0653C8.87774 29.9776 8.96904 29.8413 9.00004 29.6863C9.03103 29.5313 8.99919 29.3704 8.91152 29.2389C8.82385 29.1074 8.68752 29.0161 8.53254 28.9851C4.28254 28.0076 3.51754 26.0313 3.49629 25.9676C2.89221 24.8805 2.65485 23.6276 2.81947 22.3949C2.98408 21.1623 3.54188 20.0155 4.41004 19.1251C5.15223 18.1368 6.11523 17.3359 7.22213 16.7861C8.32903 16.2363 9.54915 15.953 10.785 15.9588C14.4188 16.1713 15.8638 19.3376 15.6725 22.4826C15.694 24.1273 15.1697 25.7328 14.1815 27.0478C13.1933 28.3628 11.7971 29.3132 10.2113 29.7501C10.0366 29.7813 9.88027 29.8777 9.7738 30.0196C9.66732 30.1616 9.61863 30.3386 9.63754 30.5151C9.66878 30.6883 9.76594 30.8426 9.9086 30.9456C10.0513 31.0487 10.2283 31.0924 10.4025 31.0676C11.5522 30.9025 12.6414 30.4493 13.5688 29.7501C14.2887 30.0844 15.0554 30.3066 15.8425 30.4088Z" fill="black"/>
<path fill-rule="evenodd" clip-rule="evenodd" d="M22.9613 31.2375C22.0938 32.0585 21.1307 32.7719 20.0926 33.3625C19.0653 33.9308 17.9831 34.3936 16.8626 34.7438C16.0003 34.956 15.1493 35.2113 14.3126 35.5088C13.72 35.727 13.2183 36.1388 12.8888 36.6775C12.4102 37.8483 12.2067 39.1132 12.2938 40.375C12.2938 43.0313 13.1651 46.3038 13.2926 47.9825C13.2952 48.0709 13.3157 48.1579 13.3527 48.2382C13.3897 48.3185 13.4425 48.3906 13.5079 48.4501C13.5733 48.5096 13.6501 48.5553 13.7336 48.5845C13.8171 48.6137 13.9056 48.6258 13.9938 48.62C14.0803 48.6173 14.1655 48.5975 14.2443 48.5618C14.3232 48.5262 14.3943 48.4753 14.4535 48.4121C14.5127 48.349 14.5589 48.2748 14.5894 48.1938C14.6199 48.1128 14.6342 48.0265 14.6313 47.94C14.6313 46.495 14.3976 43.8388 14.3976 41.395C14.3976 35.8913 15.6938 37.4425 17.6488 36.6775C18.8167 36.1262 19.9332 35.4719 20.9851 34.7225C22.0557 33.9615 23.0266 33.0691 23.8751 32.0663C23.9344 32.0125 23.9818 31.9469 24.0142 31.8737C24.0466 31.8005 24.0634 31.7213 24.0634 31.6413C24.0634 31.5612 24.0466 31.482 24.0142 31.4088C23.9818 31.3357 23.9344 31.2701 23.8751 31.2163C23.8177 31.1506 23.7466 31.0984 23.6668 31.0632C23.587 31.0281 23.5004 31.011 23.4132 31.013C23.326 31.015 23.2404 31.0362 23.1623 31.075C23.0842 31.1138 23.0156 31.1693 22.9613 31.2375Z" fill="black"/>
<path fill-rule="evenodd" clip-rule="evenodd" d="M44.3601 27.9013C43.3499 28.0077 42.3314 28.0077 41.3213 27.9013C38.3038 27.4763 34.2026 24.8413 35.6476 20.5276C36.1347 19.2679 36.9151 18.1424 37.9239 17.2444C38.9328 16.3464 40.1411 15.7017 41.4488 15.3638C42.8294 14.9455 44.3088 14.9889 45.6626 15.4874C47.0163 15.986 48.1705 16.9125 48.9501 18.1263C49.3372 18.7472 49.5972 19.4389 49.7149 20.1611C49.8325 20.8833 49.8056 21.6217 49.6356 22.3334C49.4656 23.0451 49.1559 23.7159 48.7245 24.307C48.2931 24.898 47.7486 25.3975 47.1226 25.7763C46.9777 25.8791 46.8789 26.0345 46.8471 26.2092C46.8153 26.3839 46.8532 26.5641 46.9526 26.7113C46.9994 26.7878 47.0619 26.8535 47.1359 26.9042C47.2099 26.9549 47.2938 26.9894 47.382 27.0054C47.4703 27.0215 47.5609 27.0187 47.648 26.9973C47.7351 26.9759 47.8168 26.9364 47.8876 26.8813C48.7031 26.4243 49.4197 25.8098 49.9956 25.0734C50.5716 24.3371 50.9955 23.4936 51.2426 22.592C51.4898 21.6904 51.5553 20.7486 51.4353 19.8215C51.3153 18.8944 51.0123 18.0003 50.5438 17.1913C49.5965 15.5518 48.1385 14.2675 46.3926 13.5346C44.6466 12.8016 42.7088 12.6605 40.8751 13.1326C39.2104 13.5675 37.6786 14.4057 36.4147 15.5732C35.1509 16.7406 34.1941 18.2014 33.6288 19.8263C33.2738 20.9131 33.2106 22.074 33.4456 23.1929C33.6805 24.3117 34.2054 25.3492 34.9676 26.2013C34.6168 26.0784 34.2759 25.9293 33.9476 25.7551C32.8376 25.0163 31.9256 24.0167 31.2913 22.8438C30.7709 21.9072 30.1118 21.0546 29.3363 20.3151C28.7137 19.6899 27.9425 19.2333 27.095 18.9879C26.2475 18.7426 25.3516 18.7167 24.4913 18.9126C23.7864 19.2106 23.1667 19.6793 22.6881 20.2766C22.2095 20.8739 21.8872 21.5809 21.7501 22.3338C21.624 22.8145 21.624 23.3195 21.7501 23.8001C21.9743 24.387 22.2297 24.9616 22.5151 25.5213C22.8007 26.0718 23.1201 26.604 23.4713 27.1151C24.3446 28.4556 25.3715 29.6893 26.5313 30.7913C27.7035 31.8967 29.0186 32.8401 30.4413 33.5963C31.5801 34.0753 32.7434 34.4938 33.9263 34.8501C34.2796 34.9768 34.6153 35.1482 34.9251 35.3601C35.1447 36.1447 35.287 36.949 35.3501 37.7613C35.5091 39.0298 35.573 40.3083 35.5413 41.5863C35.4937 43.5414 35.3376 45.4923 35.0738 47.4301C35.0484 47.5879 35.0868 47.7493 35.1805 47.8788C35.2741 48.0083 35.4154 48.0953 35.5732 48.1207C35.731 48.1461 35.8924 48.1077 36.0219 48.0141C36.1514 47.9204 36.2384 47.7791 36.2638 47.6213C36.5826 45.6663 36.9013 43.6688 37.0288 41.6713C37.1243 40.3201 37.1243 38.9638 37.0288 37.6126C37.0038 36.7365 36.9186 35.8632 36.7738 34.9988C36.6842 34.6218 36.4931 34.2764 36.2213 34.0001C35.754 33.6012 35.2315 33.272 34.6701 33.0226C33.6076 32.5338 32.3538 32.2151 31.4401 31.7051C30.2052 30.9995 29.0631 30.1429 28.0401 29.1551C27.0188 28.159 26.1004 27.0627 25.2988 25.8826C25.0013 25.4151 24.7251 24.9476 24.4701 24.4588C23.5776 22.8438 23.7901 22.9288 23.9176 22.4826C23.9719 22.1459 24.1065 21.8273 24.3099 21.5536C24.5133 21.2799 24.7796 21.0592 25.0863 20.9101C25.8088 20.6338 26.7651 20.9101 28.1251 21.8663C29.4851 22.8226 30.4626 25.7338 33.1188 27.1363C34.3736 27.7746 35.7707 28.0818 37.1776 28.0288C37.3827 28.1617 37.5956 28.2824 37.8151 28.3901C38.861 28.864 39.9841 29.1448 41.1301 29.2188C42.2302 29.2749 43.3332 29.2251 44.4238 29.0701C44.5014 29.0623 44.5766 29.0389 44.6448 29.0011C44.713 28.9633 44.7728 28.9121 44.8205 28.8504C44.8682 28.7888 44.9029 28.718 44.9224 28.6425C44.9418 28.567 44.9457 28.4884 44.9338 28.4113C44.9229 28.2685 44.857 28.1356 44.75 28.0404C44.6429 27.9453 44.5031 27.8954 44.3601 27.9013Z" fill="black"/>
<path fill-rule="evenodd" clip-rule="evenodd" d="M46.2725 27.0301C46.2187 26.9623 46.1509 26.9071 46.0736 26.8682C45.9964 26.8293 45.9116 26.8078 45.8252 26.805C45.7388 26.8022 45.6528 26.8183 45.5732 26.8522C45.4936 26.8861 45.4224 26.9369 45.3645 27.0011C45.3065 27.0653 45.2633 27.1413 45.2377 27.2239C45.2122 27.3065 45.205 27.3937 45.2165 27.4794C45.2281 27.5651 45.2583 27.6473 45.3048 27.7201C45.3514 27.793 45.4133 27.8548 45.4862 27.9013C47.2525 29.9003 48.3648 32.3918 48.6737 35.0413C48.9506 36.629 49.121 38.2334 49.1837 39.8438C49.2626 42.3388 49.1987 44.8362 48.9925 47.3238C48.9805 47.4104 48.986 47.4986 49.0085 47.5831C49.031 47.6675 49.0701 47.7467 49.1235 47.8159C49.1769 47.8852 49.2435 47.9431 49.3195 47.9863C49.3956 48.0295 49.4794 48.0571 49.5662 48.0676C49.7404 48.0924 49.9175 48.0487 50.0601 47.9456C50.2028 47.8426 50.3 47.6883 50.3312 47.5151C50.8764 44.9901 51.2104 42.4242 51.33 39.8438C51.4 38.0744 51.2429 36.3033 50.8625 34.5738C50.2281 31.6131 48.6103 28.9543 46.2725 27.0301Z" fill="black"/>
<path fill-rule="evenodd" clip-rule="evenodd" d="M15.6725 9.88134C15.7755 10.2399 15.9107 10.5883 16.0763 10.9226C16.2251 11.2522 16.3955 11.5716 16.5863 11.8788C17.0753 12.6233 17.6149 13.3333 18.2013 14.0038C18.2813 14.1378 18.4091 14.2364 18.559 14.2798C18.7088 14.3232 18.8696 14.3081 19.0088 14.2376C19.1467 14.1614 19.2488 14.0336 19.2927 13.8822C19.3365 13.7308 19.3185 13.5682 19.2425 13.4301C18.9663 12.6013 18.8175 11.7938 18.5413 10.9863C18.4216 10.6445 18.2796 10.3109 18.1163 9.98759C17.9673 9.6649 17.7969 9.35253 17.6063 9.05259C17.16 8.30884 16.6713 7.60759 16.1825 6.92759C16.1034 6.76906 15.9656 6.64766 15.7984 6.58921C15.6311 6.53077 15.4477 6.53991 15.2871 6.61467C15.1265 6.68944 15.0014 6.82393 14.9384 6.98954C14.8755 7.15514 14.8796 7.33876 14.95 7.50134C15.205 8.26634 15.375 9.07384 15.6725 9.88134Z" fill="black"/>
<path fill-rule="evenodd" clip-rule="evenodd" d="M25.2987 10.3913C25.2986 10.5455 25.3583 10.6937 25.4654 10.8047C25.5724 10.9157 25.7183 10.9808 25.8724 10.9863C25.9513 10.9922 26.0305 10.9817 26.1051 10.9555C26.1797 10.9293 26.248 10.8879 26.3059 10.8341C26.3638 10.7802 26.4099 10.7149 26.4413 10.6424C26.4728 10.5699 26.4889 10.4916 26.4887 10.4125C26.6799 9.52005 26.9137 8.6913 27.0199 7.77755C27.0417 7.40245 27.0417 7.0264 27.0199 6.6513C27.0405 6.27617 27.0405 5.90018 27.0199 5.52505C27.0199 4.6538 26.7649 3.8038 26.6374 2.9113C26.6378 2.73808 26.572 2.57126 26.4535 2.44489C26.335 2.31852 26.1728 2.24213 25.9999 2.2313C25.9116 2.22845 25.8237 2.24338 25.7413 2.27521C25.6589 2.30704 25.5838 2.35511 25.5203 2.41657C25.4569 2.47802 25.4065 2.55161 25.372 2.63295C25.3376 2.71429 25.3199 2.80172 25.3199 2.89005C25.1712 3.78255 25.0012 4.63255 24.9162 5.52505C24.8951 5.90017 24.8951 6.27618 24.9162 6.6513C24.8953 7.02643 24.8953 7.40242 24.9162 7.77755C24.9587 8.67005 25.1712 9.4988 25.2987 10.3913Z" fill="black"/>
<path fill-rule="evenodd" clip-rule="evenodd" d="M33.0339 13.3238C33.6594 12.8743 34.2491 12.377 34.7976 11.8363C35.0122 11.5996 35.2043 11.3435 35.3714 11.0713C35.5414 10.8163 35.6901 10.54 35.8389 10.2638C36.1576 9.58377 36.4126 8.92502 36.7101 8.26627C36.8202 8.12595 36.8727 7.94896 36.8569 7.77132C36.8411 7.59367 36.7582 7.42871 36.6251 7.31002C36.4779 7.21065 36.2977 7.17281 36.123 7.20457C35.9483 7.23634 35.7929 7.3352 35.6901 7.48002C35.1376 8.01127 34.6276 8.50002 34.1176 9.07377C33.9264 9.30752 33.7351 9.54127 33.5651 9.79627C33.3585 10.0569 33.1737 10.3341 33.0126 10.625C32.6939 11.2838 32.4814 11.9425 32.1414 12.58C32.0869 12.6382 32.0446 12.7066 32.0171 12.7814C31.9896 12.8562 31.9773 12.9358 31.9811 13.0153C31.9849 13.0949 32.0047 13.173 32.0392 13.2448C32.0738 13.3166 32.1224 13.3807 32.1822 13.4334C32.2419 13.4861 32.3117 13.5262 32.3873 13.5514C32.4629 13.5766 32.5428 13.5864 32.6222 13.5801C32.7017 13.5738 32.779 13.5517 32.8498 13.515C32.9205 13.4782 32.9831 13.4277 33.0339 13.3663V13.3238Z" fill="black"/>
</g>
<defs>
<clipPath id="clip0_2751_137">
<rect width="51" height="51" fill="white" transform="translate(0.5)"/>
</clipPath>
</defs>
</svg>
