<svg width="52" height="52" viewBox="0 0 52 52" fill="none" xmlns="http://www.w3.org/2000/svg">
<g clip-path="url(#clip0_2751_153)">
<path fill-rule="evenodd" clip-rule="evenodd" d="M33.6499 4.75005C33.8199 5.6213 33.7774 6.40755 34.6061 6.4288C35.4349 6.45005 35.3499 5.81255 35.7961 4.7713C37.3261 4.49505 37.9211 4.62255 37.9211 3.8788C37.9211 3.13505 37.2836 2.9438 36.0724 2.5188C35.7111 0.691299 35.5411 0.393799 35.0524 0.393799C34.5636 0.393799 34.4574 0.712549 33.7349 2.15755C31.4824 2.5188 31.2911 2.75255 31.2274 3.1988C31.1636 3.64505 31.1211 4.11255 33.6499 4.75005Z" fill="black"/>
<path fill-rule="evenodd" clip-rule="evenodd" d="M46.2512 30.0375C45.8262 28.9537 45.805 28.1462 45.04 28.2312C44.275 28.3162 44.4875 28.8262 44.1475 30.165H43.9562C40.875 31.015 41.0237 31.3975 41.045 31.7162C41.0662 32.035 41.4275 32.5237 44.0837 32.715C44.785 35.7325 45.4012 35.4987 45.6775 35.4775C45.9537 35.4562 46.5062 35.1375 46.6762 32.4812V32.375C48.8012 31.7587 49.3112 31.78 49.29 30.9937C49.2687 30.2075 49.0137 30.25 46.2512 30.0375Z" fill="black"/>
<path fill-rule="evenodd" clip-rule="evenodd" d="M11.5288 17.5001C10.8831 17.535 10.246 17.6639 9.63752 17.8826C9.35867 18.0081 9.1144 18.1993 8.92565 18.4399C8.7369 18.6804 8.60929 18.9632 8.55377 19.2639C8.37605 20.2812 8.2907 21.3125 8.29877 22.3451C8.29877 24.5976 8.15002 26.8501 8.17127 29.1239C8.17127 30.6539 8.17127 32.1839 8.36252 33.6926C8.51127 35.8176 8.36252 40.9176 8.49002 43.1276C8.46454 43.5026 8.46454 43.8789 8.49002 44.2539C8.50858 44.492 8.59155 44.7207 8.73005 44.9153C8.86854 45.11 9.05735 45.2633 9.27627 45.3589C10.4208 45.6057 11.591 45.7128 12.7613 45.6776C16.395 45.6776 22.3025 45.5501 24.64 45.4864L30.9088 45.1889C30.9088 45.1889 32.1413 45.1889 32.5875 45.0826C32.8323 45.0607 33.0624 44.9563 33.24 44.7864C33.4177 44.6165 33.5323 44.3912 33.565 44.1476C33.6027 43.4398 33.6027 42.7305 33.565 42.0226C33.4375 40.3651 33.1613 38.4951 32.9913 37.2626C32.9807 37.1564 32.9491 37.0533 32.8984 36.9593C32.8477 36.8653 32.7788 36.7823 32.6958 36.7151C32.6128 36.6479 32.5173 36.5978 32.4148 36.5678C32.3123 36.5378 32.2049 36.5284 32.0988 36.5401C31.8823 36.5668 31.6851 36.6776 31.5499 36.8487C31.4147 37.0197 31.3523 37.2372 31.3763 37.4539C31.3763 38.4951 31.6525 40.0251 31.7375 41.4914V43.0851L30.8663 43.2764H24.64C22.855 43.2764 19.0725 43.2764 15.7788 43.1489C13.845 43.1489 12.1025 43.1489 11.1463 43.0214C11.1463 40.7476 11.1463 35.5626 11.0188 33.4589C10.8913 31.9926 10.8488 30.5264 10.8063 29.0601V22.3239C10.7638 19.2214 9.00002 20.0926 15.5875 19.4976L28.5925 18.6476C28.7841 18.6335 28.9623 18.5439 29.0878 18.3985C29.2134 18.253 29.276 18.0636 29.2619 17.872C29.2478 17.6804 29.1582 17.5022 29.0127 17.3767C28.8673 17.2512 28.6779 17.1885 28.4863 17.2026L15.375 17.5001H11.5288Z" fill="black"/>
<path fill-rule="evenodd" clip-rule="evenodd" d="M5.57865 23.4288C5.57865 20.3901 5.83365 17.3726 6.1524 14.3551H6.4074C7.52281 14.1574 8.65338 14.0579 9.78615 14.0576C10.5299 14.0576 11.2949 14.0576 12.0599 13.9301C17.7337 13.2501 15.3749 14.0363 17.2874 11.4013C17.5566 10.9922 17.8945 10.6328 18.2862 10.3388C18.7138 9.97752 19.2034 9.69673 19.7312 9.51006C20.0388 9.37295 20.3718 9.3021 20.7087 9.3021C21.0455 9.3021 21.3785 9.37295 21.6862 9.51006C23.0438 10.3219 24.0511 11.6095 24.5124 13.1226C24.5395 13.2263 24.5869 13.3236 24.652 13.4088C24.7171 13.494 24.7985 13.5654 24.8915 13.6188C24.9845 13.6722 25.0871 13.7066 25.1935 13.7199C25.2999 13.7332 25.4079 13.7252 25.5112 13.6963C25.7019 13.62 25.8576 13.4756 25.9479 13.2911C26.0382 13.1065 26.0567 12.895 25.9999 12.6976C25.849 11.4444 25.379 10.251 24.6349 9.23156C23.8908 8.2121 22.8974 7.4007 21.7499 6.87506C21.1697 6.7047 20.5605 6.6564 19.9607 6.73321C19.3609 6.81001 18.7835 7.01025 18.2649 7.32131C17.6533 7.67974 17.1072 8.13964 16.6499 8.68131C16.1828 9.24483 15.8161 9.8846 15.5662 10.5726C15.4164 10.9833 15.2887 11.4019 15.1837 11.8263C14.319 11.6015 13.4379 11.4452 12.5487 11.3588C12.0324 11.3163 11.5136 11.3163 10.9974 11.3588C10.4687 11.4024 9.94342 11.4805 9.4249 11.5926C4.64365 12.6976 4.0699 11.5926 3.0499 25.0863C2.90115 26.8076 2.8374 28.5288 2.8374 30.2501V35.3926C3.07115 39.3876 3.49615 43.3613 3.9849 47.3351C3.99283 47.4432 4.02245 47.5486 4.072 47.6451C4.12154 47.7415 4.19 47.827 4.27329 47.8964C4.35658 47.9658 4.453 48.0177 4.55679 48.049C4.66058 48.0804 4.76962 48.0905 4.8774 48.0788C5.08767 48.0524 5.2805 47.9485 5.41809 47.7873C5.55568 47.6261 5.6281 47.4194 5.62115 47.2076C5.40865 42.4688 5.40865 37.7301 5.4724 32.9701V27.3176C5.5574 26.0001 5.5574 24.6826 5.57865 23.4288Z" fill="black"/>
<path fill-rule="evenodd" clip-rule="evenodd" d="M37.7724 30.5687C37.7546 30.475 37.7184 30.3858 37.666 30.3062C37.6135 30.2266 37.5458 30.1582 37.4668 30.1049C37.3878 30.0515 37.299 30.0144 37.2056 29.9955C37.1121 29.9766 37.0159 29.9764 36.9224 29.9949C36.7359 30.0359 36.5724 30.147 36.4656 30.3052C36.3588 30.4635 36.3169 30.6567 36.3486 30.8449C36.5334 33.1565 36.5689 35.4776 36.4549 37.7937C36.4549 39.3237 36.4549 40.8537 36.3486 42.3624C36.2861 44.0065 36.0799 45.6419 35.7324 47.2499C35.671 47.4585 35.6918 47.6827 35.7906 47.8764C35.8894 48.0701 36.0587 48.2185 36.2636 48.2912C36.4694 48.3518 36.6906 48.3304 36.8808 48.2313C37.071 48.1322 37.2154 47.9633 37.2836 47.7599C38.0799 45.8511 38.6435 43.8534 38.9624 41.8099C39.1053 40.9386 39.1834 40.0578 39.1961 39.1749C39.2488 38.2974 39.2488 37.4175 39.1961 36.5399C38.8918 34.5127 38.4155 32.5151 37.7724 30.5687Z" fill="black"/>
<path fill-rule="evenodd" clip-rule="evenodd" d="M34.8399 48.2489C33.1761 48.5971 31.4822 48.7821 29.7824 48.8014C27.1687 48.8014 24.4912 48.8014 21.9837 48.6951C20.6874 48.6951 19.4124 48.6951 18.1374 48.8439C16.2249 48.9501 14.3124 49.1414 12.3999 49.2051H8.31992C8.22493 49.1933 8.12854 49.2004 8.03634 49.2262C7.94414 49.2519 7.85797 49.2957 7.78284 49.355C7.70771 49.4143 7.64512 49.488 7.5987 49.5717C7.55227 49.6554 7.52294 49.7475 7.51242 49.8426C7.49983 50.0299 7.55854 50.2151 7.67678 50.3609C7.79502 50.5068 7.96404 50.6025 8.14992 50.6289C10.4567 51.0132 12.784 51.2615 15.1199 51.3726C16.0549 51.3726 16.9687 51.3726 17.9037 51.5001H22.0262C24.5974 51.3726 27.2962 51.3301 29.9737 51.0114C31.7684 50.8 33.5397 50.423 35.2649 49.8851C35.4761 49.8257 35.655 49.6849 35.7626 49.4937C35.8701 49.3025 35.8975 49.0765 35.8387 48.8651C35.8137 48.759 35.768 48.6589 35.7043 48.5704C35.6405 48.482 35.5599 48.407 35.4672 48.3498C35.3744 48.2925 35.2712 48.2541 35.1636 48.2368C35.056 48.2195 34.946 48.2236 34.8399 48.2489Z" fill="black"/>
<path fill-rule="evenodd" clip-rule="evenodd" d="M41.8099 23.1739C41.9374 23.1739 42.0224 23.4714 42.1712 23.6201C42.3395 23.7962 42.5329 23.9465 42.7449 24.0664C43.0334 24.1702 43.349 24.1702 43.6374 24.0664C43.8241 24.0179 43.9983 23.9303 44.1485 23.8094C44.2987 23.6885 44.4215 23.5371 44.5087 23.3651C44.7561 22.9058 44.9011 22.3983 44.9337 21.8776C44.9881 21.0285 44.9881 20.1767 44.9337 19.3276C44.9337 18.3289 44.9337 17.3301 44.6999 16.3526C44.4024 14.0576 43.8924 11.8264 43.4674 9.55262C43.4082 9.36076 43.2796 9.19786 43.1067 9.0957C42.9338 8.99355 42.7291 8.95947 42.5324 9.00012C42.3605 9.02756 42.2025 9.1113 42.0833 9.23822C41.9641 9.36513 41.8903 9.52803 41.8737 9.70137C39.8974 10.1689 37.8787 10.3176 35.8599 10.6364C34.9249 10.8064 33.9899 11.0189 33.0974 11.2526C32.1999 11.4899 31.3359 11.8397 30.5262 12.2939C30.1276 12.5073 29.8075 12.8423 29.6124 13.2501C29.5502 13.4485 29.5431 13.66 29.5917 13.8621C29.6404 14.0642 29.743 14.2493 29.8887 14.3976L30.5262 14.8864L32.6512 16.5014C32.6512 16.5014 32.4812 16.5014 32.4387 16.6714C31.3762 18.3289 30.3137 20.0076 29.2512 21.6439C28.5287 22.7064 27.7849 23.7689 26.9987 24.7676C26.9987 24.7676 26.5099 25.7664 26.0637 26.3826C25.2774 25.8514 24.5124 25.2776 23.7049 24.7464C23.2343 24.4265 22.7446 24.1356 22.2387 23.8751C21.7181 23.5719 21.1787 23.3021 20.6237 23.0676C20.4288 22.9846 20.2192 22.9418 20.0074 22.9418C19.7956 22.9418 19.586 22.9846 19.3912 23.0676C18.9215 23.3476 18.5102 23.7156 18.1799 24.1514C17.6062 24.8739 17.1174 25.8514 16.6924 26.4251L11.7837 33.7989C11.6754 33.9544 11.6325 34.1462 11.6643 34.333C11.6961 34.5199 11.8 34.6867 11.9537 34.7976C12.1125 34.9071 12.3077 34.9506 12.4981 34.9189C12.6884 34.8872 12.8589 34.7827 12.9737 34.6276C13.6537 33.721 14.362 32.8285 15.0987 31.9501C16.2674 30.6326 17.4999 29.3576 18.6262 28.1251C19.0299 27.6789 19.5187 26.9564 20.0287 26.3189L20.3899 25.9364C20.6662 26.1276 20.9637 26.4039 21.0274 26.4464L25.3837 29.2514C25.709 29.4066 26.0773 29.447 26.4285 29.366C26.7797 29.2849 27.0931 29.0872 27.3174 28.8051C27.9518 28.0251 28.5407 27.2091 29.0812 26.3614C29.8037 25.2351 30.5049 24.0876 31.2062 22.8976C32.1837 21.1551 33.0549 19.3914 33.9899 17.6489C34.0367 17.5416 34.0609 17.4259 34.0609 17.3089C34.0609 17.1919 34.0367 17.0761 33.9899 16.9689H34.1599C34.2949 16.8334 34.3707 16.6501 34.3707 16.4589C34.3707 16.2677 34.2949 16.0843 34.1599 15.9489L32.6087 14.2064C33.0974 14.0789 33.5862 13.9939 33.8199 13.9514C35.2649 13.5264 36.7524 13.2076 38.2399 12.8039C39.4906 12.4555 40.7184 12.0297 41.9162 11.5289L42.1924 19.6039V21.0276C41.9206 20.8679 41.6645 20.6829 41.4274 20.4751C40.9334 20.0878 40.478 19.6537 40.0674 19.1789C40.0164 19.1011 39.95 19.0347 39.8722 18.9837C39.7945 18.9326 39.7071 18.8981 39.6155 18.8821C39.5239 18.8662 39.43 18.8692 39.3396 18.891C39.2492 18.9128 39.1642 18.9529 39.0899 19.0089C38.9565 19.0999 38.8611 19.2367 38.8219 19.3934C38.7827 19.5501 38.8025 19.7158 38.8774 19.8589C36.9862 22.2814 35.0737 24.7251 33.0762 27.0839C31.7587 28.6351 30.4199 30.1439 28.9749 31.5889C25.0862 35.3714 27.2962 34.2876 23.1737 32.1839C22.6751 31.9346 22.1561 31.7284 21.6224 31.5676C21.426 31.5171 21.2206 31.5119 21.0218 31.5524C20.823 31.5929 20.636 31.678 20.4749 31.8014C19.1903 32.8612 17.9698 33.9966 16.8199 35.2014C15.1412 36.9864 13.5474 38.8776 11.9112 40.6414C11.7762 40.7768 11.7005 40.9602 11.7005 41.1514C11.7005 41.3426 11.7762 41.526 11.9112 41.6614C12.0527 41.7928 12.2387 41.8659 12.4318 41.8659C12.6249 41.8659 12.8109 41.7928 12.9524 41.6614C14.6949 40.0464 16.4374 38.3251 18.2862 36.7101C19.2417 35.8572 20.2418 35.0556 21.2824 34.3089C21.5162 34.4151 21.8774 34.4789 21.9199 34.5214C22.7487 34.9889 23.6199 35.7326 24.4912 36.3064C24.9657 36.6215 25.4802 36.8717 26.0212 37.0501C26.3649 37.1717 26.7399 37.1717 27.0837 37.0501C27.5022 36.7987 27.9001 36.5144 28.2737 36.2001L30.9512 33.5014C32.3537 31.9289 33.6499 30.2714 34.9037 28.5926C36.6249 26.2339 38.2399 23.7901 39.8762 21.3676C40.0037 21.5164 40.0887 21.6864 40.2162 21.8351C40.7118 22.3221 41.2447 22.7697 41.8099 23.1739Z" fill="black"/>
</g>
<defs>
<clipPath id="clip0_2751_153">
<rect width="51" height="51" fill="white" transform="translate(0.5 0.5)"/>
</clipPath>
</defs>
</svg>
