<svg width="650" height="237" viewBox="0 0 650 237" fill="none" xmlns="http://www.w3.org/2000/svg">
<path d="M0 2.44331H52.1458V232.811H0V2.44331Z" fill="black"/>
<path d="M191.146 85.341C201.145 85.341 210.911 87.377 220.445 91.4492C229.979 95.5214 237.827 101.979 243.989 110.821C250.152 119.547 253.233 131.066 253.233 145.376V232.811H200.04V154.102C200.04 143.864 197.599 136.185 192.716 131.066C187.832 125.83 181.438 123.212 173.532 123.212C168.3 123.212 163.358 124.608 158.707 127.401C154.173 130.077 150.452 133.916 147.546 138.919C144.755 143.806 143.36 149.448 143.36 155.848V232.811H90.3423V89.5295H143.36V110.647C144.755 106.807 147.662 102.968 152.08 99.1281C156.615 95.1723 162.254 91.9146 168.997 89.3549C175.857 86.6789 183.24 85.341 191.146 85.341Z" fill="black"/>
<path d="M285.263 2.44331H418.33V48.1679H337.408V94.5906H412.226V140.141H337.408V232.811H285.263V2.44331Z" fill="black"/>
<path d="M453.374 232.811V89.5295H506.392V232.811H453.374ZM480.581 60.0354C472.209 60.0354 465.117 57.1267 459.304 51.3093C453.49 45.3756 450.584 38.3365 450.584 30.1922C450.584 22.0479 453.49 15.0088 459.304 9.07512C465.233 3.02504 472.326 0 480.581 0C486.045 0 491.045 1.39617 495.579 4.18852C500.113 6.86451 503.776 10.4713 506.566 15.0088C509.357 19.5464 510.752 24.6075 510.752 30.1922C510.752 38.3365 507.787 45.3756 501.857 51.3093C495.928 57.1267 488.836 60.0354 480.581 60.0354Z" fill="black"/>
<path d="M530.71 89.5295H555.126V30.7158H607.621V89.5295H639.71V133.16H607.621V173.125C607.621 179.059 608.493 183.887 610.237 187.61C611.981 191.217 615.178 193.021 619.829 193.021C622.968 193.021 625.642 192.323 627.851 190.926C630.06 189.53 631.397 188.599 631.862 188.134L650 225.831C649.186 226.529 646.628 227.809 642.326 229.67C638.141 231.532 632.792 233.219 626.281 234.731C619.771 236.244 612.504 237 604.481 237C590.181 237 578.379 232.986 569.078 224.958C559.777 216.814 555.126 204.306 555.126 187.436V133.16H530.71V89.5295Z" fill="black"/>
</svg>
