<svg width="52" height="51" viewBox="0 0 52 51" fill="none" xmlns="http://www.w3.org/2000/svg">
<g clip-path="url(#clip0_2751_168)">
<path fill-rule="evenodd" clip-rule="evenodd" d="M51.5001 45.0287C51.2026 42.9037 48.4826 40.6087 47.1439 39.6737L45.7201 38.675C44.2751 37.5912 44.8064 37.1025 43.9564 37.1025C43.9564 34.9775 44.2326 33.0012 44.2326 31.1525V28.6025C44.2326 27.7737 44.0626 26.9025 43.9351 26.0525C43.6376 24.2037 43.2339 22.3337 42.7239 20.1662C42.6923 19.9495 42.5762 19.7541 42.401 19.6227C42.2258 19.4913 42.0057 19.4346 41.7889 19.465C41.6822 19.4805 41.5798 19.5171 41.4876 19.5728C41.3953 19.6285 41.3152 19.702 41.2518 19.7892C41.1884 19.8763 41.1431 19.9752 41.1186 20.0801C41.094 20.185 41.0907 20.2938 41.1089 20.4C41.2576 22.6525 41.2576 24.65 41.3426 26.4562C41.3426 27.8162 41.3426 29.1337 41.5764 30.4725C41.8101 32.5975 42.2139 34.7225 42.5964 37.145H38.4951C35.9451 37.0387 33.3739 36.7625 30.8239 36.5925C29.0814 36.4862 27.3601 36.4225 25.6389 36.38C23.5139 36.38 21.4951 36.38 19.4339 36.6137C16.3526 36.8475 13.3139 37.2512 10.2326 37.6337C10.041 37.6337 9.85721 37.7098 9.72172 37.8453C9.58622 37.9808 9.5101 38.1646 9.5101 38.3562C9.5101 38.5478 9.58622 38.7316 9.72172 38.8671C9.85721 39.0026 10.041 39.0787 10.2326 39.0787H16.3526C19.3914 39.0787 22.4089 39.0787 25.4689 39.2487C27.2964 39.2487 29.1239 39.355 30.9726 39.3975C32.8214 39.44 34.6701 39.3975 36.5189 39.3975C38.6439 39.3975 40.8964 39.2275 43.0426 39.015L44.6364 40.2687L46.0601 41.3737C46.8306 41.9306 47.5426 42.5643 48.1851 43.265L39.4089 42.5H30.7389C26.4889 42.5 22.0901 42.755 17.7764 42.755C14.2064 42.8825 10.5939 43.3712 7.0026 43.4987H3.1776C3.56735 42.5273 4.09712 41.6181 4.7501 40.8L6.1951 39.5037L8.3201 38.1012C8.48918 38.0111 8.61551 37.8574 8.6713 37.6741C8.72709 37.4908 8.70778 37.2928 8.6176 37.1237C8.5382 36.9985 8.4222 36.9008 8.28535 36.8438C8.1485 36.7867 7.99741 36.7732 7.8526 36.805L8.1501 32.895C8.29885 30.9612 8.5326 29.0487 8.68135 27.0937C8.8301 25.1387 9.0001 23.2262 9.0001 21.25C8.76635 16.2775 8.5751 18.615 11.1251 18.19L16.1614 17.2762C16.3587 17.2152 16.5261 17.0827 16.6308 16.9046C16.7355 16.7266 16.7699 16.5159 16.7274 16.3138C16.6848 16.1117 16.5683 15.9327 16.4007 15.812C16.2331 15.6913 16.0265 15.6375 15.8214 15.6612L10.9126 16.0862C10.5301 16.0862 8.7876 15.9375 7.9376 16.0862C7.71671 16.1115 7.50317 16.181 7.30969 16.2905C7.1162 16.4 6.94673 16.5474 6.81135 16.7237C6.5778 17.1201 6.43282 17.5623 6.38635 18.02C6.2376 19.04 6.38635 20.6337 6.38635 21.2075C6.38635 23.1625 6.17385 25.1175 6.1526 27.0512C6.13135 28.985 6.1526 30.9612 6.30135 32.9162L6.4926 37.655L5.45135 38.2925L3.7301 39.695C2.31756 41.0595 1.26608 42.7536 0.670102 44.625C0.400794 45.3826 0.385793 46.2074 0.627373 46.9743C0.868952 47.7412 1.35394 48.4085 2.00885 48.875C2.72052 49.3451 3.52495 49.6567 4.3676 49.7887C5.4515 49.9395 6.54641 49.9964 7.6401 49.9587L14.6101 50.2562C20.6876 50.2562 26.7651 50.6175 32.8214 50.6387C35.4564 50.6387 38.0914 50.6387 40.7264 50.3625L45.1251 49.6825L47.8451 48.9812L49.6514 48.2162C50.2799 47.9797 50.8073 47.5331 51.1442 46.9522C51.4811 46.3713 51.6069 45.6917 51.5001 45.0287ZM48.6951 46.325L47.2076 46.8775L44.7214 47.43L40.6413 47.8125H35.4776C28.5289 47.8125 21.5801 47.3875 14.6314 47.4512H7.61885C6.6432 47.5363 5.662 47.5363 4.68635 47.4512C4.15722 47.3844 3.6454 47.2186 3.1776 46.9625C2.85012 46.7296 2.60962 46.3943 2.49415 46.0094C2.37869 45.6245 2.39486 45.2121 2.5401 44.8375C2.5401 44.8375 2.5401 44.7312 2.5401 44.6887C4.00479 44.9016 5.48061 45.0293 6.9601 45.0712C10.5301 45.1987 14.1639 45.0712 17.7126 45.0712H26.4251C30.6751 44.965 35.0738 44.6675 39.3876 44.5187H49.0989H49.2264C49.3468 44.664 49.4288 44.8371 49.4648 45.0223C49.5009 45.2075 49.4899 45.3987 49.4327 45.5785C49.3756 45.7583 49.2743 45.9209 49.138 46.0513C49.0016 46.1818 48.8348 46.2759 48.6526 46.325H48.6951Z" fill="black"/>
<path fill-rule="evenodd" clip-rule="evenodd" d="M20.4963 14.875C21.2358 15.5603 22.04 16.1723 22.8976 16.7025C22.9795 16.776 23.0753 16.8324 23.1794 16.8684C23.2834 16.9045 23.3935 16.9195 23.5034 16.9125C23.6133 16.9055 23.7207 16.8767 23.8193 16.8277C23.9179 16.7788 24.0058 16.7107 24.0778 16.6274C24.1498 16.5441 24.2045 16.4473 24.2386 16.3426C24.2728 16.238 24.2858 16.1275 24.2768 16.0178C24.2678 15.9081 24.2371 15.8012 24.1863 15.7035C24.1356 15.6058 24.0659 15.5192 23.9813 15.4487C23.4081 14.9382 22.8753 14.384 22.3876 13.7912C22.1828 13.5331 22.0508 13.225 22.0051 12.8987L22.3663 12.3462C22.7504 11.7597 23.2673 11.2719 23.8751 10.9225C24.5796 10.5038 25.3476 10.2023 26.1488 10.03L27.0626 9.88121C27.0626 9.88121 26.8926 10.0937 26.8288 10.2212C25.862 11.8623 25.1458 13.6385 24.7038 15.4912C24.5107 16.2049 24.5071 16.9567 24.6935 17.6722C24.8798 18.3878 25.2496 19.0423 25.7663 19.5712L27.4026 21.25C27.9432 21.8036 28.6248 22.1992 29.3738 22.3939C30.1228 22.5886 30.9107 22.5752 31.6526 22.355C33.5204 21.8567 35.3037 21.0832 36.9438 20.06C37.1138 20.06 37.2626 19.8262 37.4326 19.7412L37.2413 20.825C37.0689 21.6262 36.7675 22.3941 36.3488 23.0987C35.9915 23.7374 35.4893 24.2833 34.8826 24.6925L34.3301 25.0537C34.0038 25.008 33.6957 24.876 33.4376 24.6712C32.8497 24.178 32.296 23.6455 31.7801 23.0775C31.6351 22.9157 31.4324 22.8174 31.2156 22.8036C30.9989 22.7898 30.7854 22.8617 30.621 23.0037C30.4567 23.1458 30.3547 23.3466 30.337 23.5631C30.3193 23.7796 30.3873 23.9943 30.5263 24.1612C31.0564 25.0188 31.6685 25.823 32.3538 26.5625C32.7712 26.9652 33.2825 27.2573 33.8413 27.4125C34.2334 27.4976 34.6392 27.4976 35.0313 27.4125C35.5119 27.3152 35.972 27.1354 36.3913 26.8812C37.3869 26.2891 38.2024 25.4369 38.7501 24.4162C39.1194 23.4027 39.2925 22.3282 39.2601 21.25L39.0901 19.125C39.0796 18.9977 39.0796 18.8697 39.0901 18.7425C40.4925 17.7609 41.7636 16.604 42.8726 15.3C44.5885 13.1979 45.7501 10.6993 46.2513 8.03246C46.4123 6.86214 46.4123 5.67528 46.2513 4.50496C46.2191 3.44083 45.8214 2.42026 45.1251 1.61496C44.374 0.966023 43.4367 0.57174 42.4476 0.488706C41.2825 0.405752 40.1116 0.470009 38.9626 0.679956C36.3255 1.26557 33.8733 2.49168 31.8226 4.24996C30.5102 5.38863 29.3465 6.68802 28.3588 8.11746H28.1251L26.0001 7.86246C24.8639 7.85515 23.7375 8.07178 22.6851 8.49996C21.6171 9.04157 20.7307 9.88361 20.1351 10.9225C19.8927 11.3301 19.7204 11.7754 19.6251 12.24C19.5397 12.6249 19.5397 13.0238 19.6251 13.4087C19.7972 13.9587 20.0956 14.4608 20.4963 14.875ZM33.2463 6.03496C35.0521 4.64625 37.1659 3.71324 39.4088 3.31496C40.1524 3.18663 40.9073 3.13678 41.6613 3.16621C42.1832 3.12269 42.7051 3.24943 43.1488 3.52746C43.4465 3.98708 43.5812 4.53337 43.5313 5.07871C43.5822 5.85234 43.5466 6.62924 43.4251 7.39496C43.111 9.64497 42.2339 11.7793 40.8751 13.6C39.4637 15.4619 37.7202 17.0469 35.7326 18.275C34.3073 19.2543 32.7467 20.0203 31.1001 20.5487C30.6732 20.7043 30.2129 20.745 29.7654 20.6666C29.3178 20.5883 28.8987 20.3938 28.5501 20.1025L26.8288 18.4662C26.5229 18.1001 26.3187 17.66 26.2366 17.19C26.1546 16.7201 26.1976 16.2368 26.3613 15.7887C26.8943 14.1427 27.6753 12.5877 28.6776 11.1775C29.9058 9.21524 31.4746 7.48814 33.3101 6.07746L33.2463 6.03496Z" fill="black"/>
<path fill-rule="evenodd" clip-rule="evenodd" d="M17.84 23.1199C18.041 23.266 18.2632 23.3807 18.4988 23.4599L18.3288 23.6936C17.4931 24.704 16.7799 25.8095 16.2038 26.9874C15.909 27.7381 15.8497 28.5608 16.0338 29.3461C16.1047 29.5644 16.2288 29.7616 16.395 29.9199C16.5554 30.0834 16.7519 30.2072 16.9688 30.2811C17.8377 30.5585 18.7756 30.5284 19.625 30.1961C20.7964 29.6203 21.895 28.9069 22.8975 28.0711L23.1313 27.9011C23.2144 28.1417 23.3287 28.3703 23.4713 28.5811C23.6918 29.0264 24.0752 29.3697 24.5421 29.5399C25.009 29.71 25.5235 29.6939 25.9788 29.4949C26.8793 29.0245 27.5642 28.2255 27.8913 27.2636C28.1225 26.5806 28.2094 25.8569 28.1463 25.1386C28.0699 24.2172 27.9351 23.3016 27.7425 22.3974C27.7299 22.2895 27.6952 22.1853 27.6403 22.0916C27.5855 21.9978 27.5119 21.9164 27.424 21.8525C27.3362 21.7886 27.236 21.7436 27.1299 21.7204C27.0238 21.6971 26.914 21.6961 26.8075 21.7174C26.7011 21.7304 26.5984 21.7645 26.5053 21.8177C26.4122 21.8709 26.3306 21.9422 26.2653 22.0272C26.2001 22.1123 26.1524 22.2095 26.1251 22.3132C26.0978 22.4168 26.0914 22.5249 26.1063 22.6311C26.2252 23.4689 26.2891 24.3137 26.2975 25.1599C26.301 25.6323 26.2145 26.1011 26.0425 26.5411C26.0425 26.7324 25.575 26.9024 25.3625 27.0936L25.2563 25.6911C25.1574 25.3447 24.925 25.0517 24.6103 24.8764C24.2956 24.7011 23.9241 24.6578 23.5775 24.7561L22.9825 24.9686L21.4313 25.8611C20.9213 26.1799 20.1775 26.7111 19.3063 27.1361H19.2C19.5902 26.403 20.023 25.6935 20.4963 25.0111L21.3675 23.4174C21.4536 23.2321 21.5247 23.0402 21.58 22.8436C21.59 22.7802 21.59 22.7157 21.58 22.6524C21.6238 22.4884 21.632 22.317 21.6041 22.1496C21.5763 21.9822 21.5129 21.8228 21.4183 21.6819C21.3237 21.541 21.2001 21.422 21.0557 21.3328C20.9114 21.2436 20.7496 21.1864 20.5813 21.1649L19.0513 21.2499C19.0513 21.2499 19.0513 21.1436 18.9238 21.2499C18.7963 21.3561 18.9238 21.4624 18.9238 21.4411C18.9238 21.4199 19.4975 20.7399 19.8163 20.6124C20.261 20.4262 20.7368 20.3252 21.2188 20.3149C22.0645 20.3164 22.9092 20.3732 23.7475 20.4849C23.8425 20.4999 23.9396 20.4958 24.033 20.4728C24.1264 20.4498 24.2143 20.4084 24.2915 20.351C24.3687 20.2936 24.4336 20.2214 24.4825 20.1385C24.5314 20.0557 24.5633 19.9639 24.5763 19.8686C24.6015 19.7613 24.6026 19.6497 24.5794 19.5419C24.5563 19.4342 24.5094 19.3329 24.4423 19.2454C24.3752 19.158 24.2895 19.0866 24.1914 19.0363C24.0933 18.986 23.9852 18.9582 23.875 18.9549C22.9765 18.7653 22.0686 18.6234 21.155 18.5299C20.4383 18.4724 19.7171 18.5517 19.03 18.7636C18.1202 19.1117 17.366 19.7755 16.905 20.6336C16.7139 21.089 16.7042 21.6004 16.8781 22.0627C17.052 22.525 17.3961 22.9032 17.84 23.1199Z" fill="black"/>
</g>
<defs>
<clipPath id="clip0_2751_168">
<rect width="51" height="51" fill="white" transform="translate(0.5)"/>
</clipPath>
</defs>
</svg>
