<svg xmlns="http://www.w3.org/2000/svg" viewBox="0 0 700 269.02"><defs><style>.cls-1{fill:#FFFF;}</style></defs><title>Task Around (Black &amp;amp; White) 01</title><g id="Layer_2" data-name="Layer 2"><g id="Layer_1-2" data-name="Layer 1"><path class="cls-1" d="M134.06,0H95A95,95,0,0,0,0,95v39.11a95,95,0,0,0,78.63,93.56A6.49,6.49,0,0,1,84,234v26.23a8.76,8.76,0,0,0,13.66,7.26l54.74-36.92a64.84,64.84,0,0,1,14.14-7.29A94.88,94.88,0,0,0,229,134.06V95A95,95,0,0,0,134.06,0Zm81.3,137.41a77.62,77.62,0,0,1-12.9,43h0c-.27.41-.55.82-.83,1.22s-.73,1.05-1.1,1.56c-.61.84-1.23,1.66-1.87,2.47-.3.38-.61.77-.92,1.14l-.17.21q-.47.59-1,1.14c-.7.82-1.42,1.63-2.15,2.41-.37.4-.74.79-1.12,1.17s-.74.77-1.13,1.15l-1,1q-1.31,1.24-2.67,2.43l-.91.78c-.38.32-.76.64-1.15,1l-.66.53-.75.59c-.25.2-.51.39-.76.57l-.76.58-.85.6c-.23.17-.46.34-.7.5s-.52.37-.79.54l-.58.4-.53.35-1,.62c-.3.2-.6.38-.89.56l-1.05.64h0l-.64.38c-1.2.7-2.43,1.37-3.67,2l-.62.32-1.33.64-1.27.6-.09,0-1.23.54-.28.12c-.37.16-.75.34-1.13.47l-.08,0-.57.22c-.38.16-.77.31-1.17.46l-1.54.56c-.5.18-1,.36-1.51.52l0,0a80,80,0,0,0-19.58,9.49l0,0-12,8.08L97.7,251V235.69A23.26,23.26,0,0,0,79.39,213c-23.48-5.18-61.69-21.88-65.73-75.61V91.61a78,78,0,0,1,78-77.95h45.8a78,78,0,0,1,78,78Z"/><path class="cls-1" d="M118.54,160.62l-13.32-28.71a7.49,7.49,0,0,0-3.65-3.65L72.78,114.91a7.51,7.51,0,0,1,.6-13.87l15-5.44,62.55-22.68a7.51,7.51,0,0,1,9.61,9.62l-22.71,62.53-5.43,15A7.51,7.51,0,0,1,118.54,160.62Z"/><path class="cls-1" d="M294.43,63.51v33.7c0,6.64,3.13,9.72,9.87,9.72h8v13.54h-8.09c-7.37,0-13.34-2-17.74-5.78s-6.73-9.77-6.73-17.48V31.48h14.73V50h17.83V63.51Z"/><path class="cls-1" d="M373.92,120.47h14.73V50H373.92v6.88c-6.21-5.19-13.82-7.81-22.64-7.81A34.51,34.51,0,0,0,326,59.63a35.27,35.27,0,0,0-10.5,25.73A35.06,35.06,0,0,0,326,111a34.59,34.59,0,0,0,25.27,10.5c9,0,16.61-2.66,22.64-7.93Zm-22-12.87a20.62,20.62,0,0,1-15.57-6.44,21.63,21.63,0,0,1-6.28-15.8,21.67,21.67,0,0,1,6.28-15.81,20.66,20.66,0,0,1,15.57-6.44,22,22,0,0,1,22.25,22.25,21.83,21.83,0,0,1-22.25,22.24Z"/><path class="cls-1" d="M440.05,106.57c-2.29,1.66-5.7,2.5-10.1,2.5-5.12-.08-9-1.18-11.62-3.25a11.07,11.07,0,0,1-4.27-8l-.13-1.42H398.68l.13,1.69a23.15,23.15,0,0,0,9.13,17.3c5.4,4.15,12.62,6.25,21.45,6.25s15.87-2,21.23-5.9,8.3-9.73,8.3-17a17.28,17.28,0,0,0-3.54-11.1,18,18,0,0,0-8.74-6c-3.24-1-6.76-2-10.46-2.77S429,77.44,425.77,77a17,17,0,0,1-7.31-2.73,5.46,5.46,0,0,1-2.53-4.7A6,6,0,0,1,419,64.07c2.26-1.43,5.4-2.16,9.34-2.16,4.6,0,7.93,1,9.88,2.88a10.8,10.8,0,0,1,3.32,7.12l.12,1.45h15l-.12-1.69A22,22,0,0,0,448,55.24c-5.1-4-11.85-6.06-20.07-6.06-8.05,0-14.63,2-19.56,6a19.37,19.37,0,0,0-7.57,15.66,18.53,18.53,0,0,0,3.45,11.47,17.38,17.38,0,0,0,8.62,6.2,95.54,95.54,0,0,0,10.42,2.71c3.69.75,7.17,1.36,10.34,1.81a16,16,0,0,1,7.15,2.64,5.64,5.64,0,0,1,2.48,4.85A7.08,7.08,0,0,1,440.05,106.57Z"/><polygon class="cls-1" points="483.54 93.53 509.37 120.47 529.56 120.47 495.81 85.18 526.55 49.98 508.39 49.98 483.54 78.73 483.54 26.16 468.67 26.16 468.67 120.47 483.54 120.47 483.54 93.53"/><path class="cls-1" d="M332.61,148.24c-6.22-5.18-13.82-7.81-22.65-7.81A34.49,34.49,0,0,0,284.69,151a36.68,36.68,0,0,0,0,51.4A34.62,34.62,0,0,0,310,212.92c9,0,16.62-2.67,22.65-7.94v6.87h14.73V141.36H332.61Zm-22,50.75a20.61,20.61,0,0,1-15.57-6.45,23,23,0,0,1,0-31.6,20.63,20.63,0,0,1,15.57-6.45,22.42,22.42,0,0,1,15.85,38.1A21.36,21.36,0,0,1,310.63,199Z"/><path class="cls-1" d="M373.55,149.22v-7.86H358.82v70.49h14.87V176.21c0-6.3,1.76-11.38,5.23-15.1s8.18-5.55,14.35-5.55h1.58V140.43h-1.58C385.13,140.43,378.52,143.38,373.55,149.22Z"/><path class="cls-1" d="M434.92,140.3c-10.41,0-19.24,3.53-26.26,10.5a35.13,35.13,0,0,0-10.58,25.81,35.6,35.6,0,0,0,10.51,26c7,7,15.83,10.58,26.33,10.58s19.23-3.56,26.21-10.58a35.59,35.59,0,0,0,10.5-26,35.19,35.19,0,0,0-10.51-25.8C454.15,143.83,445.33,140.3,434.92,140.3Zm-22.11,36.44a22,22,0,0,1,6.34-16.2,21,21,0,0,1,15.77-6.45,20.8,20.8,0,0,1,15.71,6.45c4.22,4.35,6.27,9.65,6.27,16.2a21.74,21.74,0,0,1-6.39,16.06,21.25,21.25,0,0,1-15.85,6.45A20.69,20.69,0,0,1,419,192.88C414.84,188.57,412.81,183.3,412.81,176.74Z"/><path class="cls-1" d="M528.77,180.86c0,5.59-1.6,10-4.75,13.28S516.69,199,511.31,199c-4.73,0-8.33-1.43-11-4.35s-4.05-7-4.05-12V141.36H481.52v42.83c0,8.64,2.55,15.65,7.57,20.86s11.79,7.87,20.09,7.87a30.68,30.68,0,0,0,13.4-2.82,25.34,25.34,0,0,0,6.19-4.14v5.89H543.5V141.36H528.77Z"/><path class="cls-1" d="M589.3,140.3a30.57,30.57,0,0,0-13.39,2.81,25.22,25.22,0,0,0-6.2,4.14v-5.89H555v70.49h14.72v-39.5c0-5.58,1.6-10,4.75-13.28s7.34-4.84,12.71-4.84c4.73,0,8.33,1.42,11,4.34s4,7,4,12.05v41.23H617V169c0-8.63-2.55-15.65-7.56-20.86S597.6,140.3,589.3,140.3Z"/><path class="cls-1" d="M685.14,117.54v30.58c-6.15-5.11-13.7-7.69-22.51-7.69A34.51,34.51,0,0,0,637.35,151a36.69,36.69,0,0,0,0,51.4,34.6,34.6,0,0,0,25.27,10.51c9,0,16.55-2.63,22.51-7.81v6.74H700V117.54ZM663.29,199a20.63,20.63,0,0,1-15.57-6.45,23,23,0,0,1,0-31.6,20.63,20.63,0,0,1,15.57-6.45,22.42,22.42,0,0,1,15.85,38.1A21.34,21.34,0,0,1,663.29,199Z"/></g></g></svg>